<svg xmlns="http://www.w3.org/2000/svg"><symbol viewBox="0 0 45 45" id="shape-mappin"><title>mappin</title> <g> <path d="M22.5,10.5c-5.416,0-9.5,4.299-9.5,10c0,7.173,8.831,13.634,9.207,13.905
		c0.087,0.062,0.19,0.095,0.293,0.095s0.205-0.032,0.293-0.095C23.168,34.134,32,27.673,32,20.5C32,14.799,27.916,10.5,22.5,10.5z
		 M22.5,25.5c-3.033,0-5.5-2.468-5.5-5.5c0-3.033,2.467-5.5,5.5-5.5c3.032,0,5.5,2.467,5.5,5.5C28,23.032,25.532,25.5,22.5,25.5z"/> </g> </symbol><symbol viewBox="0 0 45 45" id="shape-mappin"><title>mappin</title> <g> <path fill="#231F20" d="M22.5,10.5c-5.416,0-9.5,4.299-9.5,10c0,7.173,8.831,13.634,9.207,13.905
		c0.087,0.062,0.19,0.095,0.293,0.095s0.205-0.032,0.293-0.095C23.168,34.134,32,27.673,32,20.5C32,14.799,27.916,10.5,22.5,10.5z
		 M22.5,25.5c-3.033,0-5.5-2.468-5.5-5.5c0-3.033,2.467-5.5,5.5-5.5c3.032,0,5.5,2.467,5.5,5.5C28,23.032,25.532,25.5,22.5,25.5z"/> </g> </symbol><symbol viewBox="0 0 17 17" id="shape-pinterest"><title>pinterest</title> <style type="text/css"> &amp;lt;![CDATA[ .st0{fill-rule:evenodd;clip-rule:evenodd;} .st1{display:inline;} .st2{display:none;} .st3{display:inline;fill-rule:evenodd;clip-rule:evenodd;} ]]&amp;gt; </style> <g id="svgstored12f3b31b35f6d6ffd43c7519dfd85d0Small_Arrow" class="st2"> <path class="st3" d="M6.2,3.8l4.7,4.7l-4.7,4.7V3.8z"/> </g> <g id="svgstored12f3b31b35f6d6ffd43c7519dfd85d0Facebook" class="st2"> <path id="svgstored12f3b31b35f6d6ffd43c7519dfd85d0Facebook_3_" class="st1" d="M6.4,3.6c0,0.4,0,2.2,0,2.2H4.8v2.7h1.6v8h3.3v-8h2.2c0,0,0.2-1.3,0.3-2.7
		c-0.3,0-2.5,0-2.5,0s0-1.6,0-1.8c0-0.3,0.4-0.6,0.7-0.6c0.4,0,1.1,0,1.8,0c0-0.4,0-1.6,0-2.8c-0.9,0-2,0-2.5,0
		C6.3,0.5,6.4,3.2,6.4,3.6z"/> </g> <g id="svgstored12f3b31b35f6d6ffd43c7519dfd85d0Calendar" class="st2"> <g class="st1"> <rect x="5" y="7.5" class="st0" width="1" height="1"/> <rect x="7" y="7.5" class="st0" width="1" height="1"/> <rect x="9" y="7.5" class="st0" width="1" height="1"/> <rect x="11" y="7.5" class="st0" width="1" height="1"/> <rect x="5" y="9.5" class="st0" width="1" height="1"/> <rect x="7" y="9.5" class="st0" width="1" height="1"/> <rect x="9" y="9.5" class="st0" width="1" height="1"/> <rect x="11" y="9.5" class="st0" width="1" height="1"/> <rect x="5" y="11.5" class="st0" width="1" height="1"/> <rect x="7" y="11.5" class="st0" width="1" height="1"/> <rect x="9" y="11.5" class="st0" width="1" height="1"/> <rect x="11" y="11.5" class="st0" width="1" height="1"/> <path class="st0" d="M13,3.5h-1c0-0.6-0.4-1-1-1s-1,0.4-1,1H7c0-0.6-0.4-1-1-1S5,3,5,3.5H4c-0.6,0-1,0.4-1,1v9c0,0.6,0.4,1,1,1h9
			c0.6,0,1-0.4,1-1v-9C14,4,13.6,3.5,13,3.5z M13,13.5H4v-7h9V13.5z"/> </g> </g> <g id="svgstored12f3b31b35f6d6ffd43c7519dfd85d0Category" class="st2"> <g class="st1"> <rect x="4.5" y="4.5" class="st0" width="11" height="2"/> <rect x="4.5" y="7.5" class="st0" width="11" height="2"/> <rect x="4.5" y="10.5" class="st0" width="11" height="2"/> <circle class="st0" cx="2.5" cy="5.5" r="1"/> </g> </g> <g id="svgstored12f3b31b35f6d6ffd43c7519dfd85d0Love" class="st2"> <path class="st1" d="M8.8,13.9C8.7,14,8.6,14,8.5,14c-0.1,0-0.2,0-0.3-0.1C8,13.7,2.5,9.7,2.5,6.5C2.5,4.3,4.1,3,5.7,3
		c1,0,2.1,0.5,2.8,1.8C9.2,3.5,10.3,3,11.3,3c1.6,0,3.2,1.3,3.2,3.5C14.5,9.7,9,13.7,8.8,13.9z"/> </g> <g id="svgstored12f3b31b35f6d6ffd43c7519dfd85d0Twitter" class="st2"> <path class="st1" d="M16.5,3.5c-0.6,0.3-1.2,0.4-1.9,0.5c0.7-0.4,1.2-1,1.4-1.8C15.4,2.6,14.7,2.9,14,3c-0.6-0.6-1.5-1-2.4-1
		C9.8,2,8.3,3.5,8.3,5.3c0,0.3,0,0.5,0.1,0.7C5.7,5.9,3.2,4.6,1.6,2.6c-0.3,0.5-0.4,1-0.4,1.6c0,1.1,0.6,2.1,1.5,2.7
		c-0.5,0-1-0.2-1.5-0.4c0,0,0,0,0,0c0,1.6,1.1,2.9,2.6,3.2C3.5,9.9,3.2,10,2.9,10c-0.2,0-0.4,0-0.6-0.1c0.4,1.3,1.6,2.3,3.1,2.3
		c-1.1,0.9-2.5,1.4-4.1,1.4c-0.3,0-0.5,0-0.8,0C2,14.5,3.7,15,5.5,15c6,0,9.3-5,9.3-9.3c0-0.1,0-0.3,0-0.4
		C15.5,4.8,16.1,4.2,16.5,3.5z"/> </g> <g id="svgstored12f3b31b35f6d6ffd43c7519dfd85d0Arrow" class="st2"> <path class="st1" d="M15.5,22.5c-0.1,0-0.2,0-0.3-0.1L1.2,8.9C1.1,8.8,1,8.6,1,8.5c0-0.1,0.1-0.3,0.2-0.4l14-13.5
		c0.2-0.2,0.5-0.2,0.7,0c0.2,0.2,0.2,0.5,0,0.7L2.2,8.5l13.6,13.1c0.2,0.2,0.2,0.5,0,0.7C15.8,22.5,15.6,22.5,15.5,22.5z"/> </g> <g id="svgstored12f3b31b35f6d6ffd43c7519dfd85d0Search" class="st2"> <path class="st1" d="M16.3,14.1l-2.8-2.8c0.7-1.1,1.1-2.4,1.1-3.8c0-3.9-3.1-7-7-7c-3.9,0-7,3.1-7,7s3.1,7,7,7
		c1.4,0,2.7-0.4,3.8-1.1l2.8,2.8c0.2,0.2,0.5,0.2,0.7,0l1.4-1.4C16.4,14.6,16.4,14.3,16.3,14.1z M7.6,12.6c-2.8,0-5-2.2-5-5
		s2.2-5,5-5c2.8,0,5,2.2,5,5S10.4,12.6,7.6,12.6z"/> </g> <g id="svgstored12f3b31b35f6d6ffd43c7519dfd85d0Pinterest"> <path d="M7.5,10.9C7.1,13,6.6,15,5.1,16.1c-0.4-3.2,0.7-5.5,1.2-8C5.4,6.6,6.4,3.6,8.2,4.4c2.3,0.9-2,5.4,0.9,6
		c2.9,0.6,4.2-5.1,2.3-7C8.8,0.7,3.7,3.3,4.4,7.2c0.2,0.9,1.1,1.2,0.4,2.5C3.1,9.3,2.6,8,2.6,6.2C2.7,3.3,5.2,1.3,7.7,1
		c3.2-0.4,6.2,1.2,6.6,4.2c0.5,3.4-1.4,7-4.8,6.8C8.6,11.8,8.2,11.4,7.5,10.9"/> </g> <g id="svgstored12f3b31b35f6d6ffd43c7519dfd85d0Instagram" class="st2"> <g class="st1"> <path d="M14.5,0.5H2.6c-1.1,0-2.1,0.9-2.1,2.1v3.9h2h1.4c0.8-1.8,2.5-3,4.6-3s3.8,1.2,4.6,3h1.4h2V2.6C16.5,1.4,15.6,0.5,14.5,0.5
			z M14.5,4.5h-2v-2h2V4.5z"/> <path d="M13.5,8.5c0,2.8-2.2,5-5,5s-5-2.2-5-5h-1h-2v5.9c0,1.1,0.9,2.1,2.1,2.1h11.9c1.1,0,2.1-0.9,2.1-2.1V8.5h-2H13.5z"/> <circle cx="8.5" cy="8.5" r="3"/> </g> </g> <g id="svgstored12f3b31b35f6d6ffd43c7519dfd85d0Plus" class="st2"> <path class="st1" d="M22.5,8H9V-5.5C9-5.8,8.8-6,8.5-6S8-5.8,8-5.5V8H-5.5C-5.8,8-6,8.2-6,8.5S-5.8,9-5.5,9H8v13.5
		C8,22.8,8.2,23,8.5,23S9,22.8,9,22.5V9h13.5C22.8,9,23,8.8,23,8.5S22.8,8,22.5,8z"/> </g> <g id="svgstored12f3b31b35f6d6ffd43c7519dfd85d0Logo" class="st2"> <g class="st1"> <polygon points="249.8,-4.7 249.8,-3.9 253.1,-3.9 253.1,8.5 243.9,8.5 243.9,-3.9 247.2,-3.9 247.2,-4.7 232,-4.7 232,-3.9 
			235.9,-3.9 235.9,22 232,22 232,22.8 247.2,22.8 247.2,22 243.9,22 243.9,9.2 253.1,9.2 253.1,22 249.8,22 249.8,22.8 265,22.8 
			265,22 261.1,22 261.1,-3.9 265,-3.9 265,-4.7 		"/> <path d="M196.3,9.6v0.7h4v11.8c-1.3,0.2-9.9,1.1-9.9-13.1c0-3.8,0.4-13.3,7.3-13.3c8.4,0,9.8,9.6,9.8,10.3h0.7V-4.7h-0.7v0.4
			c0,0.4-0.1,1-0.6,1.3c-0.5,0.4-1.4,0.3-2.6-0.2c-2.2-0.9-4.8-1.7-6.7-1.7c-11.5,0-15.9,8.4-15.9,14c0,9.9,9.6,14,15.7,14
			c3.7,0,5-0.6,7.1-0.9c2-0.3,2.3,0.5,2.3,0.6h0.7V10.3h3.2V9.6H196.3z"/> <polygon points="143.4,-4.7 143.4,-3.9 147.4,-3.9 147.4,22 143.4,22 143.4,22.8 159.2,22.8 159.2,22 155.3,22 155.3,-3.9 
			159.2,-3.9 159.2,-4.7 		"/> <path d="M121.7,14c-0.3,5.4-3.9,7.9-8.4,8.1H105V9.1c4.3,0,7.7,1.7,7.9,5.8h0.4V2.6H113c-0.2,4.1-3.7,5.8-7.9,5.8V-3.9h7.5
			c4.5,0.2,8,2.7,8.4,8.1h0.6l0-8.8H93.1v0.7h4v26h-4v0.7h29.1l0-8.8H121.7z"/> <path d="M-64.6,15.9c-2.3-4.7-4.4-7-12.3-7l0,0c4.6-0.2,11.6-1.4,11.6-6.9c0-6-7.8-6.6-14.2-6.7l0,0H-92v0.7h4v26h-4v0.7h15.7V22
			h-3.8v-26h1.3c4.2,0,6.4,1.9,6.4,6.3c0,5.6-5.1,6.5-5.1,6.5c1.9,0.3,3.4,2.2,5.1,7.9c2.1,7.3,9.2,6,12.8,6v-0.6
			C-62.3,22.3-61.8,21.8-64.6,15.9z"/> <path d="M-113.2-4.7h-12.6v0.7h6.6v17.5c0,7.6-7.9,9.5-11.6,8c-3.1-1.2-2.9-7.3-2.9-9.2V-3.9h3.3v-0.7h-15.9v0.7h4v16.9
			c0,8.1,4.8,9.9,12.5,9.9c7.7,0,11.3-3.7,11.3-9.7v-17h5.3V-4.7z"/> <path d="M-167.9,22l-13.5-28l-12.5,28h-3.9v0.7h9.3V22h-4.6l3.3-7.4h10l3.3,7.4h-4.1v0.7h15.9V22H-167.9z M-189.5,13.9l4.6-10.4
			l4.7,10.4H-189.5z"/> <path d="M-7.9,22L-21.4-6l-12.5,28h-3.9v0.7h9.3V22h-4.6l3.3-7.4h10l3.3,7.4h-4.1v0.7h15.9V22H-7.9z M-29.5,13.9l4.6-10.4
			l4.7,10.4H-29.5z"/> <path d="M-219.5,14c-0.3,5.4-3.9,7.9-8.4,8.1h-8.3v-26h4.6v-0.7H-248v0.7h4v26h-4v0.7h29.1V14H-219.5z"/> <path d="M71.4,14c-0.3,5.4-3.9,7.9-8.4,8.1h-8.3v-26h4.6v-0.7H42.9v0.7h4v26h-4v0.7H72V14H71.4z"/> </g> </g> </symbol><symbol viewBox="0 0 17 17" id="shape-calendar"><title>calendar</title> <g id="svgstore867254c40091133b8923d087e1c0a33cSmall_Arrow" display="none"> <path display="inline" d="M6.2,3.8l4.7,4.7l-4.7,4.7V3.8z"/> </g> <g id="svgstore867254c40091133b8923d087e1c0a33cFacebook" display="none"> <path id="svgstore867254c40091133b8923d087e1c0a33cFacebook_3_" display="inline" d="M6.4,3.6c0,0.4,0,2.2,0,2.2H4.8v2.7h1.6v8h3.3v-8h2.2c0,0,0.199-1.3,0.3-2.7
		c-0.3,0-2.5,0-2.5,0s0-1.6,0-1.8c0-0.3,0.399-0.6,0.7-0.6c0.399,0,1.1,0,1.8,0c0-0.4,0-1.6,0-2.8c-0.9,0-2,0-2.5,0
		C6.3,0.5,6.4,3.2,6.4,3.6z"/> </g> <g id="svgstore867254c40091133b8923d087e1c0a33cCalendar"> <g> <rect x="5" y="7.5" width="1" height="1"/> <rect x="7" y="7.5" width="1" height="1"/> <rect x="9" y="7.5" width="1" height="1"/> <rect x="11" y="7.5" width="1" height="1"/> <rect x="5" y="9.5" width="1" height="1"/> <rect x="7" y="9.5" width="1" height="1"/> <rect x="9" y="9.5" width="1" height="1"/> <rect x="11" y="9.5" width="1" height="1"/> <rect x="5" y="11.5" width="1" height="1"/> <rect x="7" y="11.5" width="1" height="1"/> <rect x="9" y="11.5" width="1" height="1"/> <rect x="11" y="11.5" width="1" height="1"/> <path d="M13,3.5h-1c0-0.6-0.4-1-1-1s-1,0.4-1,1H7c0-0.6-0.4-1-1-1S5,3,5,3.5H4c-0.6,0-1,0.4-1,1v9c0,0.6,0.4,1,1,1h9
			c0.6,0,1-0.4,1-1v-9C14,4,13.6,3.5,13,3.5z M13,13.5H4v-7h9V13.5z"/> </g> </g> <g id="svgstore867254c40091133b8923d087e1c0a33cCategory" display="none"> <g display="inline"> <rect x="4.5" y="4.5" width="11" height="2"/> <rect x="4.5" y="7.5" width="11" height="2"/> <rect x="4.5" y="10.5" width="11" height="2"/> <circle cx="2.5" cy="5.5" r="1"/> </g> </g> <g id="svgstore867254c40091133b8923d087e1c0a33cLove" display="none"> <path display="inline" d="M8.8,13.9C8.7,14,8.6,14,8.5,14s-0.2,0-0.3-0.1C8,13.7,2.5,9.7,2.5,6.5C2.5,4.3,4.1,3,5.7,3
		c1,0,2.1,0.5,2.8,1.8C9.2,3.5,10.3,3,11.3,3c1.601,0,3.2,1.3,3.2,3.5C14.5,9.7,9,13.7,8.8,13.9z"/> </g> <g id="svgstore867254c40091133b8923d087e1c0a33cTwitter" display="none"> <path display="inline" d="M16.5,3.5c-0.6,0.3-1.2,0.4-1.9,0.5c0.7-0.4,1.2-1,1.4-1.8c-0.6,0.4-1.3,0.7-2,0.8c-0.6-0.6-1.5-1-2.4-1
		C9.8,2,8.3,3.5,8.3,5.3c0,0.3,0,0.5,0.1,0.7C5.7,5.9,3.2,4.6,1.6,2.6c-0.3,0.5-0.4,1-0.4,1.6c0,1.1,0.6,2.1,1.5,2.7
		c-0.5,0-1-0.2-1.5-0.4l0,0c0,1.6,1.1,2.9,2.6,3.2C3.5,9.9,3.2,10,2.9,10c-0.2,0-0.4,0-0.6-0.1c0.4,1.3,1.6,2.3,3.1,2.3
		C4.3,13.1,2.9,13.6,1.3,13.6c-0.3,0-0.5,0-0.8,0C2,14.5,3.7,15,5.5,15c6,0,9.3-5,9.3-9.3c0-0.1,0-0.3,0-0.4
		C15.5,4.8,16.1,4.2,16.5,3.5z"/> </g> <g id="svgstore867254c40091133b8923d087e1c0a33cArrow" display="none"> <path display="inline" d="M15.5,22.5c-0.1,0-0.2,0-0.3-0.1L1.2,8.9C1.1,8.8,1,8.6,1,8.5s0.1-0.3,0.2-0.4l14-13.5
		c0.2-0.2,0.5-0.2,0.7,0c0.199,0.2,0.199,0.5,0,0.7L2.2,8.5l13.6,13.1c0.2,0.2,0.2,0.5,0,0.7C15.8,22.5,15.6,22.5,15.5,22.5z"/> </g> <g id="svgstore867254c40091133b8923d087e1c0a33cSearch" display="none"> <path display="inline" d="M16.3,14.1l-2.8-2.8c0.7-1.1,1.1-2.4,1.1-3.8c0-3.9-3.1-7-7-7s-7,3.1-7,7c0,3.9,3.1,7,7,7
		c1.4,0,2.7-0.4,3.8-1.1l2.8,2.8c0.2,0.2,0.5,0.2,0.7,0l1.399-1.4C16.4,14.6,16.4,14.3,16.3,14.1z M7.6,12.6c-2.8,0-5-2.199-5-5
		s2.2-5,5-5s5,2.2,5,5S10.4,12.6,7.6,12.6z"/> </g> <g id="svgstore867254c40091133b8923d087e1c0a33cPinterest" display="none"> <path display="inline" d="M7.5,10.9C7.1,13,6.6,15,5.1,16.1c-0.4-3.199,0.7-5.5,1.2-8C5.4,6.6,6.4,3.6,8.2,4.4
		c2.3,0.9-2,5.4,0.899,6C12,11,13.3,5.3,11.4,3.4C8.8,0.7,3.7,3.3,4.4,7.2c0.2,0.9,1.1,1.2,0.4,2.5C3.1,9.3,2.6,8,2.6,6.2
		C2.7,3.3,5.2,1.3,7.7,1c3.2-0.4,6.2,1.2,6.6,4.2c0.5,3.4-1.399,7-4.8,6.8C8.6,11.8,8.2,11.4,7.5,10.9"/> </g> <g id="svgstore867254c40091133b8923d087e1c0a33cInstagram" display="none"> <g display="inline"> <path d="M14.5,0.5H2.6c-1.1,0-2.1,0.9-2.1,2.1v3.9h2h1.4c0.8-1.8,2.5-3,4.6-3c2.1,0,3.8,1.2,4.6,3h1.4h2V2.6
			C16.5,1.4,15.6,0.5,14.5,0.5z M14.5,4.5h-2v-2h2V4.5z"/> <path d="M13.5,8.5c0,2.8-2.2,5-5,5s-5-2.2-5-5h-1h-2v5.9c0,1.1,0.9,2.1,2.1,2.1h11.9c1.1,0,2.1-0.9,2.1-2.1V8.5h-2H13.5z"/> <circle cx="8.5" cy="8.5" r="3"/> </g> </g> <g id="svgstore867254c40091133b8923d087e1c0a33cPlus" display="none"> <path display="inline" d="M22.5,8H9V-5.5C9-5.8,8.8-6,8.5-6S8-5.8,8-5.5V8H-5.5C-5.8,8-6,8.2-6,8.5S-5.8,9-5.5,9H8v13.5
		C8,22.8,8.2,23,8.5,23S9,22.8,9,22.5V9h13.5C22.8,9,23,8.8,23,8.5S22.8,8,22.5,8z"/> </g> <g id="svgstore867254c40091133b8923d087e1c0a33cLogo" display="none"> <g display="inline"> <polygon points="249.8,-4.7 249.8,-3.9 253.1,-3.9 253.1,8.5 243.9,8.5 243.9,-3.9 247.2,-3.9 247.2,-4.7 232,-4.7 232,-3.9 
			235.9,-3.9 235.9,22 232,22 232,22.8 247.2,22.8 247.2,22 243.9,22 243.9,9.2 253.1,9.2 253.1,22 249.8,22 249.8,22.8 265,22.8 
			265,22 261.1,22 261.1,-3.9 265,-3.9 265,-4.7 		"/> <path d="M196.3,9.6v0.7h4v11.8C199,22.3,190.4,23.2,190.4,9c0-3.8,0.399-13.3,7.3-13.3c8.399,0,9.8,9.6,9.8,10.3h0.7V-4.7h-0.7
			v0.4c0,0.4-0.1,1-0.6,1.3c-0.5,0.4-1.4,0.3-2.601-0.2c-2.2-0.9-4.8-1.7-6.7-1.7c-11.5,0-15.899,8.4-15.899,14
			c0,9.9,9.6,14,15.7,14c3.699,0,5-0.6,7.1-0.899c2-0.3,2.3,0.5,2.3,0.6h0.7V10.3h3.2V9.6H196.3z"/> <polygon points="143.4,-4.7 143.4,-3.9 147.4,-3.9 147.4,22 143.4,22 143.4,22.8 159.2,22.8 159.2,22 155.3,22 155.3,-3.9 
			159.2,-3.9 159.2,-4.7 		"/> <path d="M121.7,14c-0.3,5.4-3.9,7.9-8.4,8.1H105v-13c4.3,0,7.7,1.7,7.9,5.801h0.399V2.6H113c-0.2,4.1-3.7,5.8-7.9,5.8V-3.9h7.5
			c4.5,0.2,8,2.7,8.4,8.1h0.6v-8.8H93.1v0.7h4v26h-4v0.7H122.2V14H121.7z"/> <path d="M-64.6,15.9c-2.3-4.7-4.4-7-12.3-7l0,0c4.6-0.2,11.6-1.4,11.6-6.9c0-6-7.8-6.6-14.2-6.7l0,0H-92V-4h4v26h-4v0.7h15.7V22
			h-3.8V-4h1.3c4.2,0,6.4,1.9,6.4,6.3c0,5.6-5.1,6.5-5.1,6.5c1.9,0.3,3.4,2.2,5.1,7.9c2.1,7.3,9.2,6,12.8,6V22.1
			C-62.3,22.3-61.8,21.8-64.6,15.9z"/> <path d="M-113.2-4.7h-12.6V-4h6.6v17.5c0,7.6-7.9,9.5-11.6,8c-3.1-1.2-2.9-7.3-2.9-9.2V-3.9h3.3v-0.7h-15.9v0.7h4V13
			c0,8.1,4.8,9.9,12.5,9.9c7.7,0,11.3-3.7,11.3-9.7v-17h5.3V-4.7L-113.2-4.7z"/> <path d="M-167.9,22l-13.5-28l-12.5,28h-3.9v0.7h9.3V22h-4.6l3.3-7.4h10l3.3,7.4h-4.1v0.7h15.9V22H-167.9z M-189.5,13.9l4.6-10.4
			l4.7,10.4H-189.5z"/> <path d="M-7.9,22L-21.4-6l-12.5,28h-3.9v0.7h9.3V22h-4.6l3.3-7.4h10l3.3,7.4h-4.1v0.7h15.9V22H-7.9z M-29.5,13.9l4.6-10.4
			l4.7,10.4H-29.5z"/> <path d="M-219.5,14c-0.3,5.4-3.9,7.9-8.4,8.1h-8.3v-26h4.6v-0.7H-248v0.7h4v26h-4v0.7h29.1V14H-219.5z"/> <path d="M71.4,14c-0.301,5.4-3.9,7.9-8.4,8.1h-8.3v-26h4.6v-0.7H42.9v0.7h4v26h-4v0.7H72V14H71.4z"/> </g> </g> </symbol><symbol viewBox="0 0 17 17" id="shape-category"><title>category</title> <g id="svgstoreca88ef37c53da90f908f843c3160fb18Small_Arrow" display="none"> <path display="inline" d="M6.2,3.8l4.7,4.7l-4.7,4.7V3.8z"/> </g> <g id="svgstoreca88ef37c53da90f908f843c3160fb18Facebook" display="none"> <path id="svgstoreca88ef37c53da90f908f843c3160fb18Facebook_3_" display="inline" d="M6.4,3.6c0,0.4,0,2.2,0,2.2H4.8v2.7h1.6v8h3.3v-8h2.2c0,0,0.199-1.3,0.3-2.7
		c-0.3,0-2.5,0-2.5,0s0-1.6,0-1.8c0-0.3,0.399-0.6,0.7-0.6c0.399,0,1.1,0,1.8,0c0-0.4,0-1.6,0-2.8c-0.9,0-2,0-2.5,0
		C6.3,0.5,6.4,3.2,6.4,3.6z"/> </g> <g id="svgstoreca88ef37c53da90f908f843c3160fb18Calendar" display="none"> <g display="inline"> <rect x="5" y="7.5" width="1" height="1"/> <rect x="7" y="7.5" width="1" height="1"/> <rect x="9" y="7.5" width="1" height="1"/> <rect x="11" y="7.5" width="1" height="1"/> <rect x="5" y="9.5" width="1" height="1"/> <rect x="7" y="9.5" width="1" height="1"/> <rect x="9" y="9.5" width="1" height="1"/> <rect x="11" y="9.5" width="1" height="1"/> <rect x="5" y="11.5" width="1" height="1"/> <rect x="7" y="11.5" width="1" height="1"/> <rect x="9" y="11.5" width="1" height="1"/> <rect x="11" y="11.5" width="1" height="1"/> <path d="M13,3.5h-1c0-0.6-0.4-1-1-1s-1,0.4-1,1H7c0-0.6-0.4-1-1-1S5,3,5,3.5H4c-0.6,0-1,0.4-1,1v9c0,0.6,0.4,1,1,1h9
			c0.6,0,1-0.4,1-1v-9C14,4,13.6,3.5,13,3.5z M13,13.5H4v-7h9V13.5z"/> </g> </g> <g id="svgstoreca88ef37c53da90f908f843c3160fb18Category"> <g> <rect x="4.5" y="4.5" width="11" height="2"/> <rect x="4.5" y="7.5" width="11" height="2"/> <rect x="4.5" y="10.5" width="11" height="2"/> <circle cx="2.5" cy="5.5" r="1"/> </g> </g> <g id="svgstoreca88ef37c53da90f908f843c3160fb18Love" display="none"> <path display="inline" d="M8.8,13.9C8.7,14,8.6,14,8.5,14s-0.2,0-0.3-0.1C8,13.7,2.5,9.7,2.5,6.5C2.5,4.3,4.1,3,5.7,3
		c1,0,2.1,0.5,2.8,1.8C9.2,3.5,10.3,3,11.3,3c1.601,0,3.2,1.3,3.2,3.5C14.5,9.7,9,13.7,8.8,13.9z"/> </g> <g id="svgstoreca88ef37c53da90f908f843c3160fb18Twitter" display="none"> <path display="inline" d="M16.5,3.5c-0.6,0.3-1.2,0.4-1.9,0.5c0.7-0.4,1.2-1,1.4-1.8c-0.6,0.4-1.3,0.7-2,0.8c-0.6-0.6-1.5-1-2.4-1
		C9.8,2,8.3,3.5,8.3,5.3c0,0.3,0,0.5,0.1,0.7C5.7,5.9,3.2,4.6,1.6,2.6c-0.3,0.5-0.4,1-0.4,1.6c0,1.1,0.6,2.1,1.5,2.7
		c-0.5,0-1-0.2-1.5-0.4l0,0c0,1.6,1.1,2.9,2.6,3.2C3.5,9.9,3.2,10,2.9,10c-0.2,0-0.4,0-0.6-0.1c0.4,1.3,1.6,2.3,3.1,2.3
		C4.3,13.1,2.9,13.6,1.3,13.6c-0.3,0-0.5,0-0.8,0C2,14.5,3.7,15,5.5,15c6,0,9.3-5,9.3-9.3c0-0.1,0-0.3,0-0.4
		C15.5,4.8,16.1,4.2,16.5,3.5z"/> </g> <g id="svgstoreca88ef37c53da90f908f843c3160fb18Arrow" display="none"> <path display="inline" d="M15.5,22.5c-0.1,0-0.2,0-0.3-0.1L1.2,8.9C1.1,8.8,1,8.6,1,8.5s0.1-0.3,0.2-0.4l14-13.5
		c0.2-0.2,0.5-0.2,0.7,0c0.199,0.2,0.199,0.5,0,0.7L2.2,8.5l13.6,13.1c0.2,0.2,0.2,0.5,0,0.7C15.8,22.5,15.6,22.5,15.5,22.5z"/> </g> <g id="svgstoreca88ef37c53da90f908f843c3160fb18Search" display="none"> <path display="inline" d="M16.3,14.1l-2.8-2.8c0.7-1.1,1.1-2.4,1.1-3.8c0-3.9-3.1-7-7-7s-7,3.1-7,7c0,3.9,3.1,7,7,7
		c1.4,0,2.7-0.4,3.8-1.1l2.8,2.8c0.2,0.2,0.5,0.2,0.7,0l1.399-1.4C16.4,14.6,16.4,14.3,16.3,14.1z M7.6,12.6c-2.8,0-5-2.199-5-5
		s2.2-5,5-5s5,2.2,5,5S10.4,12.6,7.6,12.6z"/> </g> <g id="svgstoreca88ef37c53da90f908f843c3160fb18Pinterest" display="none"> <path display="inline" d="M7.5,10.9C7.1,13,6.6,15,5.1,16.1c-0.4-3.199,0.7-5.5,1.2-8C5.4,6.6,6.4,3.6,8.2,4.4
		c2.3,0.9-2,5.4,0.899,6C12,11,13.3,5.3,11.4,3.4C8.8,0.7,3.7,3.3,4.4,7.2c0.2,0.9,1.1,1.2,0.4,2.5C3.1,9.3,2.6,8,2.6,6.2
		C2.7,3.3,5.2,1.3,7.7,1c3.2-0.4,6.2,1.2,6.6,4.2c0.5,3.4-1.399,7-4.8,6.8C8.6,11.8,8.2,11.4,7.5,10.9"/> </g> <g id="svgstoreca88ef37c53da90f908f843c3160fb18Instagram" display="none"> <g display="inline"> <path d="M14.5,0.5H2.6c-1.1,0-2.1,0.9-2.1,2.1v3.9h2h1.4c0.8-1.8,2.5-3,4.6-3c2.1,0,3.8,1.2,4.6,3h1.4h2V2.6
			C16.5,1.4,15.6,0.5,14.5,0.5z M14.5,4.5h-2v-2h2V4.5z"/> <path d="M13.5,8.5c0,2.8-2.2,5-5,5s-5-2.2-5-5h-1h-2v5.9c0,1.1,0.9,2.1,2.1,2.1h11.9c1.1,0,2.1-0.9,2.1-2.1V8.5h-2H13.5z"/> <circle cx="8.5" cy="8.5" r="3"/> </g> </g> <g id="svgstoreca88ef37c53da90f908f843c3160fb18Plus" display="none"> <path display="inline" d="M22.5,8H9V-5.5C9-5.8,8.8-6,8.5-6S8-5.8,8-5.5V8H-5.5C-5.8,8-6,8.2-6,8.5S-5.8,9-5.5,9H8v13.5
		C8,22.8,8.2,23,8.5,23S9,22.8,9,22.5V9h13.5C22.8,9,23,8.8,23,8.5S22.8,8,22.5,8z"/> </g> <g id="svgstoreca88ef37c53da90f908f843c3160fb18Logo" display="none"> <g display="inline"> <polygon points="249.8,-4.7 249.8,-3.9 253.1,-3.9 253.1,8.5 243.9,8.5 243.9,-3.9 247.2,-3.9 247.2,-4.7 232,-4.7 232,-3.9 
			235.9,-3.9 235.9,22 232,22 232,22.8 247.2,22.8 247.2,22 243.9,22 243.9,9.2 253.1,9.2 253.1,22 249.8,22 249.8,22.8 265,22.8 
			265,22 261.1,22 261.1,-3.9 265,-3.9 265,-4.7 		"/> <path d="M196.3,9.6v0.7h4v11.8C199,22.3,190.4,23.2,190.4,9c0-3.8,0.399-13.3,7.3-13.3c8.399,0,9.8,9.6,9.8,10.3h0.7V-4.7h-0.7
			v0.4c0,0.4-0.1,1-0.6,1.3c-0.5,0.4-1.4,0.3-2.601-0.2c-2.2-0.9-4.8-1.7-6.7-1.7c-11.5,0-15.899,8.4-15.899,14
			c0,9.9,9.6,14,15.7,14c3.699,0,5-0.6,7.1-0.899c2-0.3,2.3,0.5,2.3,0.6h0.7V10.3h3.2V9.6H196.3z"/> <polygon points="143.4,-4.7 143.4,-3.9 147.4,-3.9 147.4,22 143.4,22 143.4,22.8 159.2,22.8 159.2,22 155.3,22 155.3,-3.9 
			159.2,-3.9 159.2,-4.7 		"/> <path d="M121.7,14c-0.3,5.4-3.9,7.9-8.4,8.1H105v-13c4.3,0,7.7,1.7,7.9,5.801h0.399V2.6H113c-0.2,4.1-3.7,5.8-7.9,5.8V-3.9h7.5
			c4.5,0.2,8,2.7,8.4,8.1h0.6v-8.8H93.1v0.7h4v26h-4v0.7H122.2V14H121.7z"/> <path d="M-64.6,15.9c-2.3-4.7-4.4-7-12.3-7l0,0c4.6-0.2,11.6-1.4,11.6-6.9c0-6-7.8-6.6-14.2-6.7l0,0H-92V-4h4v26h-4v0.7h15.7V22
			h-3.8V-4h1.3c4.2,0,6.4,1.9,6.4,6.3c0,5.6-5.1,6.5-5.1,6.5c1.9,0.3,3.4,2.2,5.1,7.9c2.1,7.3,9.2,6,12.8,6V22.1
			C-62.3,22.3-61.8,21.8-64.6,15.9z"/> <path d="M-113.2-4.7h-12.6V-4h6.6v17.5c0,7.6-7.9,9.5-11.6,8c-3.1-1.2-2.9-7.3-2.9-9.2V-3.9h3.3v-0.7h-15.9v0.7h4V13
			c0,8.1,4.8,9.9,12.5,9.9c7.7,0,11.3-3.7,11.3-9.7v-17h5.3V-4.7L-113.2-4.7z"/> <path d="M-167.9,22l-13.5-28l-12.5,28h-3.9v0.7h9.3V22h-4.6l3.3-7.4h10l3.3,7.4h-4.1v0.7h15.9V22H-167.9z M-189.5,13.9l4.6-10.4
			l4.7,10.4H-189.5z"/> <path d="M-7.9,22L-21.4-6l-12.5,28h-3.9v0.7h9.3V22h-4.6l3.3-7.4h10l3.3,7.4h-4.1v0.7h15.9V22H-7.9z M-29.5,13.9l4.6-10.4
			l4.7,10.4H-29.5z"/> <path d="M-219.5,14c-0.3,5.4-3.9,7.9-8.4,8.1h-8.3v-26h4.6v-0.7H-248v0.7h4v26h-4v0.7h29.1V14H-219.5z"/> <path d="M71.4,14c-0.301,5.4-3.9,7.9-8.4,8.1h-8.3v-26h4.6v-0.7H42.9v0.7h4v26h-4v0.7H72V14H71.4z"/> </g> </g> </symbol><symbol viewBox="0 0 17 17" id="shape-facebook"><title>facebook</title> <g id="svgstoree300f9d12e4e5c1d4fb22e75e6fb876cSmall_Arrow" display="none"> <path display="inline" d="M6.2,3.8l4.7,4.7l-4.7,4.7V3.8z"/> </g> <g id="svgstoree300f9d12e4e5c1d4fb22e75e6fb876cFacebook"> <path id="svgstoree300f9d12e4e5c1d4fb22e75e6fb876cFacebook_3_" d="M6.4,3.6c0,0.4,0,2.2,0,2.2H4.8v2.7h1.6v8h3.3v-8h2.2c0,0,0.199-1.3,0.3-2.7c-0.3,0-2.5,0-2.5,0
		s0-1.6,0-1.8c0-0.3,0.399-0.6,0.7-0.6c0.399,0,1.1,0,1.8,0c0-0.4,0-1.6,0-2.8c-0.9,0-2,0-2.5,0C6.3,0.5,6.4,3.2,6.4,3.6z"/> </g> <g id="svgstoree300f9d12e4e5c1d4fb22e75e6fb876cCalendar" display="none"> <g display="inline"> <rect x="5" y="7.5" width="1" height="1"/> <rect x="7" y="7.5" width="1" height="1"/> <rect x="9" y="7.5" width="1" height="1"/> <rect x="11" y="7.5" width="1" height="1"/> <rect x="5" y="9.5" width="1" height="1"/> <rect x="7" y="9.5" width="1" height="1"/> <rect x="9" y="9.5" width="1" height="1"/> <rect x="11" y="9.5" width="1" height="1"/> <rect x="5" y="11.5" width="1" height="1"/> <rect x="7" y="11.5" width="1" height="1"/> <rect x="9" y="11.5" width="1" height="1"/> <rect x="11" y="11.5" width="1" height="1"/> <path d="M13,3.5h-1c0-0.6-0.4-1-1-1s-1,0.4-1,1H7c0-0.6-0.4-1-1-1S5,3,5,3.5H4c-0.6,0-1,0.4-1,1v9c0,0.6,0.4,1,1,1h9
			c0.6,0,1-0.4,1-1v-9C14,4,13.6,3.5,13,3.5z M13,13.5H4v-7h9V13.5z"/> </g> </g> <g id="svgstoree300f9d12e4e5c1d4fb22e75e6fb876cCategory" display="none"> <g display="inline"> <rect x="4.5" y="4.5" width="11" height="2"/> <rect x="4.5" y="7.5" width="11" height="2"/> <rect x="4.5" y="10.5" width="11" height="2"/> <circle cx="2.5" cy="5.5" r="1"/> </g> </g> <g id="svgstoree300f9d12e4e5c1d4fb22e75e6fb876cLove" display="none"> <path display="inline" d="M8.8,13.9C8.7,14,8.6,14,8.5,14s-0.2,0-0.3-0.1C8,13.7,2.5,9.7,2.5,6.5C2.5,4.3,4.1,3,5.7,3
		c1,0,2.1,0.5,2.8,1.8C9.2,3.5,10.3,3,11.3,3c1.601,0,3.2,1.3,3.2,3.5C14.5,9.7,9,13.7,8.8,13.9z"/> </g> <g id="svgstoree300f9d12e4e5c1d4fb22e75e6fb876cTwitter" display="none"> <path display="inline" d="M16.5,3.5c-0.6,0.3-1.2,0.4-1.9,0.5c0.7-0.4,1.2-1,1.4-1.8c-0.6,0.4-1.3,0.7-2,0.8c-0.6-0.6-1.5-1-2.4-1
		C9.8,2,8.3,3.5,8.3,5.3c0,0.3,0,0.5,0.1,0.7C5.7,5.9,3.2,4.6,1.6,2.6c-0.3,0.5-0.4,1-0.4,1.6c0,1.1,0.6,2.1,1.5,2.7
		c-0.5,0-1-0.2-1.5-0.4l0,0c0,1.6,1.1,2.9,2.6,3.2C3.5,9.9,3.2,10,2.9,10c-0.2,0-0.4,0-0.6-0.1c0.4,1.3,1.6,2.3,3.1,2.3
		C4.3,13.1,2.9,13.6,1.3,13.6c-0.3,0-0.5,0-0.8,0C2,14.5,3.7,15,5.5,15c6,0,9.3-5,9.3-9.3c0-0.1,0-0.3,0-0.4
		C15.5,4.8,16.1,4.2,16.5,3.5z"/> </g> <g id="svgstoree300f9d12e4e5c1d4fb22e75e6fb876cArrow" display="none"> <path display="inline" d="M15.5,22.5c-0.1,0-0.2,0-0.3-0.1L1.2,8.9C1.1,8.8,1,8.6,1,8.5s0.1-0.3,0.2-0.4l14-13.5
		c0.2-0.2,0.5-0.2,0.7,0c0.199,0.2,0.199,0.5,0,0.7L2.2,8.5l13.6,13.1c0.2,0.2,0.2,0.5,0,0.7C15.8,22.5,15.6,22.5,15.5,22.5z"/> </g> <g id="svgstoree300f9d12e4e5c1d4fb22e75e6fb876cSearch" display="none"> <path display="inline" d="M16.3,14.1l-2.8-2.8c0.7-1.1,1.1-2.4,1.1-3.8c0-3.9-3.1-7-7-7s-7,3.1-7,7c0,3.9,3.1,7,7,7
		c1.4,0,2.7-0.4,3.8-1.1l2.8,2.8c0.2,0.2,0.5,0.2,0.7,0l1.399-1.4C16.4,14.6,16.4,14.3,16.3,14.1z M7.6,12.6c-2.8,0-5-2.199-5-5
		s2.2-5,5-5s5,2.2,5,5S10.4,12.6,7.6,12.6z"/> </g> <g id="svgstoree300f9d12e4e5c1d4fb22e75e6fb876cPinterest" display="none"> <path display="inline" d="M7.5,10.9C7.1,13,6.6,15,5.1,16.1c-0.4-3.199,0.7-5.5,1.2-8C5.4,6.6,6.4,3.6,8.2,4.4
		c2.3,0.9-2,5.4,0.899,6C12,11,13.3,5.3,11.4,3.4C8.8,0.7,3.7,3.3,4.4,7.2c0.2,0.9,1.1,1.2,0.4,2.5C3.1,9.3,2.6,8,2.6,6.2
		C2.7,3.3,5.2,1.3,7.7,1c3.2-0.4,6.2,1.2,6.6,4.2c0.5,3.4-1.399,7-4.8,6.8C8.6,11.8,8.2,11.4,7.5,10.9"/> </g> <g id="svgstoree300f9d12e4e5c1d4fb22e75e6fb876cInstagram" display="none"> <g display="inline"> <path d="M14.5,0.5H2.6c-1.1,0-2.1,0.9-2.1,2.1v3.9h2h1.4c0.8-1.8,2.5-3,4.6-3c2.1,0,3.8,1.2,4.6,3h1.4h2V2.6
			C16.5,1.4,15.6,0.5,14.5,0.5z M14.5,4.5h-2v-2h2V4.5z"/> <path d="M13.5,8.5c0,2.8-2.2,5-5,5s-5-2.2-5-5h-1h-2v5.9c0,1.1,0.9,2.1,2.1,2.1h11.9c1.1,0,2.1-0.9,2.1-2.1V8.5h-2H13.5z"/> <circle cx="8.5" cy="8.5" r="3"/> </g> </g> <g id="svgstoree300f9d12e4e5c1d4fb22e75e6fb876cPlus" display="none"> <path display="inline" d="M22.5,8H9V-5.5C9-5.8,8.8-6,8.5-6S8-5.8,8-5.5V8H-5.5C-5.8,8-6,8.2-6,8.5S-5.8,9-5.5,9H8v13.5
		C8,22.8,8.2,23,8.5,23S9,22.8,9,22.5V9h13.5C22.8,9,23,8.8,23,8.5S22.8,8,22.5,8z"/> </g> <g id="svgstoree300f9d12e4e5c1d4fb22e75e6fb876cLogo" display="none"> <g display="inline"> <polygon points="249.8,-4.7 249.8,-3.9 253.1,-3.9 253.1,8.5 243.9,8.5 243.9,-3.9 247.2,-3.9 247.2,-4.7 232,-4.7 232,-3.9 
			235.9,-3.9 235.9,22 232,22 232,22.8 247.2,22.8 247.2,22 243.9,22 243.9,9.2 253.1,9.2 253.1,22 249.8,22 249.8,22.8 265,22.8 
			265,22 261.1,22 261.1,-3.9 265,-3.9 265,-4.7 		"/> <path d="M196.3,9.6v0.7h4v11.8C199,22.3,190.4,23.2,190.4,9c0-3.8,0.399-13.3,7.3-13.3c8.399,0,9.8,9.6,9.8,10.3h0.7V-4.7h-0.7
			v0.4c0,0.4-0.1,1-0.6,1.3c-0.5,0.4-1.4,0.3-2.601-0.2c-2.2-0.9-4.8-1.7-6.7-1.7c-11.5,0-15.899,8.4-15.899,14
			c0,9.9,9.6,14,15.7,14c3.699,0,5-0.6,7.1-0.899c2-0.3,2.3,0.5,2.3,0.6h0.7V10.3h3.2V9.6H196.3z"/> <polygon points="143.4,-4.7 143.4,-3.9 147.4,-3.9 147.4,22 143.4,22 143.4,22.8 159.2,22.8 159.2,22 155.3,22 155.3,-3.9 
			159.2,-3.9 159.2,-4.7 		"/> <path d="M121.7,14c-0.3,5.4-3.9,7.9-8.4,8.1H105v-13c4.3,0,7.7,1.7,7.9,5.801h0.399V2.6H113c-0.2,4.1-3.7,5.8-7.9,5.8V-3.9h7.5
			c4.5,0.2,8,2.7,8.4,8.1h0.6v-8.8H93.1v0.7h4v26h-4v0.7H122.2V14H121.7z"/> <path d="M-64.6,15.9c-2.3-4.7-4.4-7-12.3-7l0,0c4.6-0.2,11.6-1.4,11.6-6.9c0-6-7.8-6.6-14.2-6.7l0,0H-92V-4h4v26h-4v0.7h15.7V22
			h-3.8V-4h1.3c4.2,0,6.4,1.9,6.4,6.3c0,5.6-5.1,6.5-5.1,6.5c1.9,0.3,3.4,2.2,5.1,7.9c2.1,7.3,9.2,6,12.8,6V22.1
			C-62.3,22.3-61.8,21.8-64.6,15.9z"/> <path d="M-113.2-4.7h-12.6V-4h6.6v17.5c0,7.6-7.9,9.5-11.6,8c-3.1-1.2-2.9-7.3-2.9-9.2V-3.9h3.3v-0.7h-15.9v0.7h4V13
			c0,8.1,4.8,9.9,12.5,9.9c7.7,0,11.3-3.7,11.3-9.7v-17h5.3V-4.7L-113.2-4.7z"/> <path d="M-167.9,22l-13.5-28l-12.5,28h-3.9v0.7h9.3V22h-4.6l3.3-7.4h10l3.3,7.4h-4.1v0.7h15.9V22H-167.9z M-189.5,13.9l4.6-10.4
			l4.7,10.4H-189.5z"/> <path d="M-7.9,22L-21.4-6l-12.5,28h-3.9v0.7h9.3V22h-4.6l3.3-7.4h10l3.3,7.4h-4.1v0.7h15.9V22H-7.9z M-29.5,13.9l4.6-10.4
			l4.7,10.4H-29.5z"/> <path d="M-219.5,14c-0.3,5.4-3.9,7.9-8.4,8.1h-8.3v-26h4.6v-0.7H-248v0.7h4v26h-4v0.7h29.1V14H-219.5z"/> <path d="M71.4,14c-0.301,5.4-3.9,7.9-8.4,8.1h-8.3v-26h4.6v-0.7H42.9v0.7h4v26h-4v0.7H72V14H71.4z"/> </g> </g> </symbol><symbol viewBox="0 0 17 17" id="shape-instagram"><title>instagram</title> <g id="svgstoref2fafac9a566851e14cffc735c3533c9Small_Arrow" display="none"> <path display="inline" d="M6.2,3.8l4.7,4.7l-4.7,4.7V3.8z"/> </g> <g id="svgstoref2fafac9a566851e14cffc735c3533c9Facebook" display="none"> <path id="svgstoref2fafac9a566851e14cffc735c3533c9Facebook_3_" display="inline" d="M6.4,3.6c0,0.4,0,2.2,0,2.2H4.8v2.7h1.6v8h3.3v-8h2.2c0,0,0.199-1.3,0.3-2.7
		c-0.3,0-2.5,0-2.5,0s0-1.6,0-1.8c0-0.3,0.399-0.6,0.7-0.6c0.399,0,1.1,0,1.8,0c0-0.4,0-1.6,0-2.8c-0.9,0-2,0-2.5,0
		C6.3,0.5,6.4,3.2,6.4,3.6z"/> </g> <g id="svgstoref2fafac9a566851e14cffc735c3533c9Calendar" display="none"> <g display="inline"> <rect x="5" y="7.5" width="1" height="1"/> <rect x="7" y="7.5" width="1" height="1"/> <rect x="9" y="7.5" width="1" height="1"/> <rect x="11" y="7.5" width="1" height="1"/> <rect x="5" y="9.5" width="1" height="1"/> <rect x="7" y="9.5" width="1" height="1"/> <rect x="9" y="9.5" width="1" height="1"/> <rect x="11" y="9.5" width="1" height="1"/> <rect x="5" y="11.5" width="1" height="1"/> <rect x="7" y="11.5" width="1" height="1"/> <rect x="9" y="11.5" width="1" height="1"/> <rect x="11" y="11.5" width="1" height="1"/> <path d="M13,3.5h-1c0-0.6-0.4-1-1-1s-1,0.4-1,1H7c0-0.6-0.4-1-1-1S5,3,5,3.5H4c-0.6,0-1,0.4-1,1v9c0,0.6,0.4,1,1,1h9
			c0.6,0,1-0.4,1-1v-9C14,4,13.6,3.5,13,3.5z M13,13.5H4v-7h9V13.5z"/> </g> </g> <g id="svgstoref2fafac9a566851e14cffc735c3533c9Category" display="none"> <g display="inline"> <rect x="4.5" y="4.5" width="11" height="2"/> <rect x="4.5" y="7.5" width="11" height="2"/> <rect x="4.5" y="10.5" width="11" height="2"/> <circle cx="2.5" cy="5.5" r="1"/> </g> </g> <g id="svgstoref2fafac9a566851e14cffc735c3533c9Love" display="none"> <path display="inline" d="M8.8,13.9C8.7,14,8.6,14,8.5,14s-0.2,0-0.3-0.1C8,13.7,2.5,9.7,2.5,6.5C2.5,4.3,4.1,3,5.7,3
		c1,0,2.1,0.5,2.8,1.8C9.2,3.5,10.3,3,11.3,3c1.601,0,3.2,1.3,3.2,3.5C14.5,9.7,9,13.7,8.8,13.9z"/> </g> <g id="svgstoref2fafac9a566851e14cffc735c3533c9Twitter" display="none"> <path display="inline" d="M16.5,3.5c-0.6,0.3-1.2,0.4-1.9,0.5c0.7-0.4,1.2-1,1.4-1.8c-0.6,0.4-1.3,0.7-2,0.8c-0.6-0.6-1.5-1-2.4-1
		C9.8,2,8.3,3.5,8.3,5.3c0,0.3,0,0.5,0.1,0.7C5.7,5.9,3.2,4.6,1.6,2.6c-0.3,0.5-0.4,1-0.4,1.6c0,1.1,0.6,2.1,1.5,2.7
		c-0.5,0-1-0.2-1.5-0.4l0,0c0,1.6,1.1,2.9,2.6,3.2C3.5,9.9,3.2,10,2.9,10c-0.2,0-0.4,0-0.6-0.1c0.4,1.3,1.6,2.3,3.1,2.3
		C4.3,13.1,2.9,13.6,1.3,13.6c-0.3,0-0.5,0-0.8,0C2,14.5,3.7,15,5.5,15c6,0,9.3-5,9.3-9.3c0-0.1,0-0.3,0-0.4
		C15.5,4.8,16.1,4.2,16.5,3.5z"/> </g> <g id="svgstoref2fafac9a566851e14cffc735c3533c9Arrow" display="none"> <path display="inline" d="M15.5,22.5c-0.1,0-0.2,0-0.3-0.1L1.2,8.9C1.1,8.8,1,8.6,1,8.5s0.1-0.3,0.2-0.4l14-13.5
		c0.2-0.2,0.5-0.2,0.7,0c0.199,0.2,0.199,0.5,0,0.7L2.2,8.5l13.6,13.1c0.2,0.2,0.2,0.5,0,0.7C15.8,22.5,15.6,22.5,15.5,22.5z"/> </g> <g id="svgstoref2fafac9a566851e14cffc735c3533c9Search" display="none"> <path display="inline" d="M16.3,14.1l-2.8-2.8c0.7-1.1,1.1-2.4,1.1-3.8c0-3.9-3.1-7-7-7s-7,3.1-7,7c0,3.9,3.1,7,7,7
		c1.4,0,2.7-0.4,3.8-1.1l2.8,2.8c0.2,0.2,0.5,0.2,0.7,0l1.399-1.4C16.4,14.6,16.4,14.3,16.3,14.1z M7.6,12.6c-2.8,0-5-2.199-5-5
		s2.2-5,5-5s5,2.2,5,5S10.4,12.6,7.6,12.6z"/> </g> <g id="svgstoref2fafac9a566851e14cffc735c3533c9Pinterest" display="none"> <path display="inline" d="M7.5,10.9C7.1,13,6.6,15,5.1,16.1c-0.4-3.199,0.7-5.5,1.2-8C5.4,6.6,6.4,3.6,8.2,4.4
		c2.3,0.9-2,5.4,0.899,6C12,11,13.3,5.3,11.4,3.4C8.8,0.7,3.7,3.3,4.4,7.2c0.2,0.9,1.1,1.2,0.4,2.5C3.1,9.3,2.6,8,2.6,6.2
		C2.7,3.3,5.2,1.3,7.7,1c3.2-0.4,6.2,1.2,6.6,4.2c0.5,3.4-1.399,7-4.8,6.8C8.6,11.8,8.2,11.4,7.5,10.9"/> </g> <g id="svgstoref2fafac9a566851e14cffc735c3533c9Instagram"> <g> <path d="M14.5,0.5H2.6c-1.1,0-2.1,0.9-2.1,2.1v3.9h2h1.4c0.8-1.8,2.5-3,4.6-3c2.1,0,3.8,1.2,4.6,3h1.4h2V2.6
			C16.5,1.4,15.6,0.5,14.5,0.5z M14.5,4.5h-2v-2h2V4.5z"/> <path d="M13.5,8.5c0,2.8-2.2,5-5,5s-5-2.2-5-5h-1h-2v5.9c0,1.1,0.9,2.1,2.1,2.1h11.9c1.1,0,2.1-0.9,2.1-2.1V8.5h-2H13.5z"/> <circle cx="8.5" cy="8.5" r="3"/> </g> </g> <g id="svgstoref2fafac9a566851e14cffc735c3533c9Plus" display="none"> <path display="inline" d="M22.5,8H9V-5.5C9-5.8,8.8-6,8.5-6S8-5.8,8-5.5V8H-5.5C-5.8,8-6,8.2-6,8.5S-5.8,9-5.5,9H8v13.5
		C8,22.8,8.2,23,8.5,23S9,22.8,9,22.5V9h13.5C22.8,9,23,8.8,23,8.5S22.8,8,22.5,8z"/> </g> <g id="svgstoref2fafac9a566851e14cffc735c3533c9Logo" display="none"> <g display="inline"> <polygon points="249.8,-4.7 249.8,-3.9 253.1,-3.9 253.1,8.5 243.9,8.5 243.9,-3.9 247.2,-3.9 247.2,-4.7 232,-4.7 232,-3.9 
			235.9,-3.9 235.9,22 232,22 232,22.8 247.2,22.8 247.2,22 243.9,22 243.9,9.2 253.1,9.2 253.1,22 249.8,22 249.8,22.8 265,22.8 
			265,22 261.1,22 261.1,-3.9 265,-3.9 265,-4.7 		"/> <path d="M196.3,9.6v0.7h4v11.8C199,22.3,190.4,23.2,190.4,9c0-3.8,0.399-13.3,7.3-13.3c8.399,0,9.8,9.6,9.8,10.3h0.7V-4.7h-0.7
			v0.4c0,0.4-0.1,1-0.6,1.3c-0.5,0.4-1.4,0.3-2.601-0.2c-2.2-0.9-4.8-1.7-6.7-1.7c-11.5,0-15.899,8.4-15.899,14
			c0,9.9,9.6,14,15.7,14c3.699,0,5-0.6,7.1-0.899c2-0.3,2.3,0.5,2.3,0.6h0.7V10.3h3.2V9.6H196.3z"/> <polygon points="143.4,-4.7 143.4,-3.9 147.4,-3.9 147.4,22 143.4,22 143.4,22.8 159.2,22.8 159.2,22 155.3,22 155.3,-3.9 
			159.2,-3.9 159.2,-4.7 		"/> <path d="M121.7,14c-0.3,5.4-3.9,7.9-8.4,8.1H105v-13c4.3,0,7.7,1.7,7.9,5.801h0.399V2.6H113c-0.2,4.1-3.7,5.8-7.9,5.8V-3.9h7.5
			c4.5,0.2,8,2.7,8.4,8.1h0.6v-8.8H93.1v0.7h4v26h-4v0.7H122.2V14H121.7z"/> <path d="M-64.6,15.9c-2.3-4.7-4.4-7-12.3-7l0,0c4.6-0.2,11.6-1.4,11.6-6.9c0-6-7.8-6.6-14.2-6.7l0,0H-92V-4h4v26h-4v0.7h15.7V22
			h-3.8V-4h1.3c4.2,0,6.4,1.9,6.4,6.3c0,5.6-5.1,6.5-5.1,6.5c1.9,0.3,3.4,2.2,5.1,7.9c2.1,7.3,9.2,6,12.8,6V22.1
			C-62.3,22.3-61.8,21.8-64.6,15.9z"/> <path d="M-113.2-4.7h-12.6V-4h6.6v17.5c0,7.6-7.9,9.5-11.6,8c-3.1-1.2-2.9-7.3-2.9-9.2V-3.9h3.3v-0.7h-15.9v0.7h4V13
			c0,8.1,4.8,9.9,12.5,9.9c7.7,0,11.3-3.7,11.3-9.7v-17h5.3V-4.7L-113.2-4.7z"/> <path d="M-167.9,22l-13.5-28l-12.5,28h-3.9v0.7h9.3V22h-4.6l3.3-7.4h10l3.3,7.4h-4.1v0.7h15.9V22H-167.9z M-189.5,13.9l4.6-10.4
			l4.7,10.4H-189.5z"/> <path d="M-7.9,22L-21.4-6l-12.5,28h-3.9v0.7h9.3V22h-4.6l3.3-7.4h10l3.3,7.4h-4.1v0.7h15.9V22H-7.9z M-29.5,13.9l4.6-10.4
			l4.7,10.4H-29.5z"/> <path d="M-219.5,14c-0.3,5.4-3.9,7.9-8.4,8.1h-8.3v-26h4.6v-0.7H-248v0.7h4v26h-4v0.7h29.1V14H-219.5z"/> <path d="M71.4,14c-0.301,5.4-3.9,7.9-8.4,8.1h-8.3v-26h4.6v-0.7H42.9v0.7h4v26h-4v0.7H72V14H71.4z"/> </g> </g> </symbol><symbol viewBox="0 0 31.2 31.2" id="shape-largearrow"><title>largearrow</title> <g id="svgstore438bbe83bf18ff8bc1f8ecc886dac2f6Small_Arrow" display="none"> <path display="inline" d="M13.3,10.9L18,15.6L13.3,20.299V10.9z"/> </g> <g id="svgstore438bbe83bf18ff8bc1f8ecc886dac2f6Facebook" display="none"> <path id="svgstore438bbe83bf18ff8bc1f8ecc886dac2f6Facebook_3_" display="inline" d="M13.5,10.7c0,0.4,0,2.2,0,2.2h-1.6v2.7h1.6v8h3.299v-8H19c0,0,0.199-1.3,0.299-2.7
		c-0.299,0-2.5,0-2.5,0s0-1.6,0-1.8c0-0.3,0.4-0.6,0.701-0.6c0.399,0,1.1,0,1.799,0c0-0.4,0-1.6,0-2.8c-0.899,0-2,0-2.5,0
		C13.4,7.6,13.5,10.3,13.5,10.7z"/> </g> <g id="svgstore438bbe83bf18ff8bc1f8ecc886dac2f6Calendar" display="none"> <g display="inline"> <rect x="12.1" y="14.6" width="1" height="1"/> <rect x="14.1" y="14.6" width="1" height="1"/> <rect x="16.1" y="14.6" width="1" height="1"/> <rect x="18.1" y="14.6" width="1" height="1"/> <rect x="12.1" y="16.6" width="1" height="1"/> <rect x="14.1" y="16.6" width="1" height="1"/> <rect x="16.1" y="16.6" width="1" height="1"/> <rect x="18.1" y="16.6" width="1" height="1"/> <rect x="12.1" y="18.6" width="1" height="1"/> <rect x="14.1" y="18.6" width="1" height="1"/> <rect x="16.1" y="18.6" width="1" height="1"/> <rect x="18.1" y="18.6" width="1" height="1"/> <path d="M20.1,10.6h-1c0-0.6-0.4-1-1-1s-1,0.4-1,1h-3c0-0.6-0.4-1-1-1s-1,0.4-1,1h-1c-0.6,0-1,0.4-1,1v9c0,0.6,0.4,1,1,1h9
			c0.6,0,1-0.4,1-1v-9C21.1,11,20.6,10.6,20.1,10.6z M20.1,20.6h-9v-7h9V20.6z"/> </g> </g> <g id="svgstore438bbe83bf18ff8bc1f8ecc886dac2f6Category" display="none"> <g display="inline"> <rect x="11.6" y="11.6" width="11" height="2"/> <rect x="11.6" y="14.6" width="11" height="2"/> <rect x="11.6" y="17.6" width="11" height="2"/> <circle cx="9.6" cy="12.6" r="1"/> </g> </g> <g id="svgstore438bbe83bf18ff8bc1f8ecc886dac2f6Love" display="none"> <path display="inline" d="M15.9,21c-0.1,0.1-0.2,0.1-0.3,0.1s-0.2,0-0.3-0.1c-0.2-0.201-5.7-4.201-5.7-7.4c0-2.2,1.6-3.5,3.2-3.5
		c1,0,2.1,0.5,2.8,1.8c0.699-1.3,1.8-1.8,2.8-1.8c1.601,0,3.2,1.3,3.2,3.5C21.6,16.799,16.1,20.799,15.9,21z"/> </g> <g id="svgstore438bbe83bf18ff8bc1f8ecc886dac2f6Twitter" display="none"> <path display="inline" d="M23.6,10.6c-0.6,0.3-1.2,0.4-1.9,0.5c0.7-0.4,1.2-1,1.4-1.8c-0.6,0.4-1.301,0.6-2.1,0.8
		c-0.601-0.6-1.5-1-2.4-1c-1.801,0-3.3,1.5-3.3,3.3c0,0.3,0,0.5,0.1,0.7c-2.7-0.1-5.1-1.4-6.8-3.4c-0.3,0.5-0.4,1-0.4,1.6
		c0,1.1,0.6,2.1,1.5,2.7c-0.5,0-1-0.2-1.5-0.4l0,0c0,1.6,1.1,2.9,2.6,3.199C10.6,17,10.3,17,10,17c-0.2,0-0.4,0-0.6-0.101
		c0.4,1.3,1.6,2.3,3.1,2.3c-1.1,0.9-2.5,1.4-4.1,1.4c-0.3,0-0.5,0-0.8,0c1.5,0.9,3.2,1.5,5,1.5c6,0,9.3-5,9.3-9.3c0-0.1,0-0.3,0-0.4
		C22.6,11.9,23.2,11.3,23.6,10.6z"/> </g> <g id="svgstore438bbe83bf18ff8bc1f8ecc886dac2f6Arrow"> <path d="M22.6,29.6c-0.1,0-0.2,0-0.301-0.1L8.3,16c-0.1-0.1-0.2-0.2-0.2-0.4c0-0.1,0.1-0.3,0.2-0.4l14-13.5
		c0.201-0.2,0.5-0.2,0.701,0C23.2,1.9,23.2,2.2,23,2.4L9.3,15.6l13.6,13.1c0.2,0.2,0.2,0.5,0,0.7C22.9,29.5,22.7,29.6,22.6,29.6z"/> </g> <g id="svgstore438bbe83bf18ff8bc1f8ecc886dac2f6Search" display="none"> <path display="inline" d="M23.299,21.2L20.5,18.4c0.699-1.101,1.1-2.4,1.1-3.8c0-3.9-3.1-7-7-7c-3.9,0-7,3.1-7,7c0,3.9,3.1,7,7,7
		c1.4,0,2.699-0.4,3.8-1.1l2.8,2.799c0.2,0.201,0.5,0.201,0.7,0l1.399-1.399C23.5,21.7,23.5,21.4,23.299,21.2z M14.7,19.7
		c-2.8,0-5-2.199-5-5s2.2-5,5-5s5,2.2,5,5S17.5,19.7,14.7,19.7z"/> </g> <g id="svgstore438bbe83bf18ff8bc1f8ecc886dac2f6Pinterest" display="none"> <path display="inline" d="M14.5,18c-0.4,2.1-0.9,4.1-2.3,5.1c-0.4-3.2,0.7-5.5,1.2-8c-0.9-1.5,0.1-4.4,1.9-3.7
		c2.3,0.9-2,5.399,0.9,6c2.9,0.601,4.2-5.1,2.301-7C15.9,7.7,10.8,10.3,11.4,14.2c0.2,0.9,1.1,1.2,0.4,2.5c-1.7-0.4-2.2-1.7-2.1-3.5
		c0.1-2.9,2.6-4.9,5.1-5.2C18,7.6,21,9.2,21.4,12.2c0.5,3.4-1.399,7-4.8,6.8C15.7,18.9,15.3,18.5,14.5,18"/> </g> <g id="svgstore438bbe83bf18ff8bc1f8ecc886dac2f6Instagram" display="none"> <g display="inline"> <path d="M21.5,7.6H9.6c-1.1,0-2.1,0.9-2.1,2.1v3.9h2H11c0.8-1.8,2.5-3,4.6-3c2.1,0,3.8,1.2,4.6,3h1.4h2v-4
			C23.6,8.5,22.7,7.6,21.5,7.6z M21.6,11.6h-2v-2h2V11.6z"/> <path d="M20.6,15.6c0,2.8-2.2,5-5,5c-2.8,0-5-2.2-5-5h-1h-2v5.9c0,1.1,0.9,2.1,2.1,2.1h11.9c1.1,0,2.1-0.9,2.1-2.1v-5.9h-2H20.6z"/> <circle cx="15.6" cy="15.6" r="3"/> </g> </g> <g id="svgstore438bbe83bf18ff8bc1f8ecc886dac2f6Plus" display="none"> <path display="inline" d="M29.6,15.1H16.1V1.6c0-0.3-0.2-0.5-0.5-0.5c-0.3,0-0.5,0.2-0.5,0.5v13.5H1.6c-0.3,0-0.5,0.2-0.5,0.5
		c0,0.3,0.2,0.5,0.5,0.5h13.5v13.5c0,0.3,0.2,0.5,0.5,0.5c0.3,0,0.5-0.2,0.5-0.5V16.1h13.5c0.3,0,0.5-0.2,0.5-0.5
		C30.1,15.3,29.9,15.1,29.6,15.1z"/> </g> <g id="svgstore438bbe83bf18ff8bc1f8ecc886dac2f6Logo" display="none"> <g display="inline"> <polygon points="256.9,2.4 256.9,3.2 260.2,3.2 260.2,15.6 251,15.6 251,3.2 254.299,3.2 254.299,2.4 239.1,2.4 239.1,3.2 
			243,3.2 243,29.1 239.1,29.1 239.1,29.9 254.299,29.9 254.299,29.1 251,29.1 251,16.299 260.2,16.299 260.2,29.1 256.9,29.1 
			256.9,29.9 272.1,29.9 272.1,29.1 268.2,29.1 268.2,3.2 272.1,3.2 272.1,2.4 		"/> <path d="M203.4,16.7v0.7h4v11.8c-1.3,0.2-9.899,1.1-9.899-13.1c0-3.8,0.399-13.3,7.299-13.3c8.4,0,9.801,9.6,9.801,10.3h0.699V2.4
			H214.6v0.4c0,0.4-0.1,1-0.6,1.3c-0.5,0.4-1.4,0.3-2.601-0.2c-2.2-0.9-4.8-1.7-6.7-1.7c-11.5,0-15.9,8.4-15.9,14
			c0,9.9,9.601,14,15.701,14c3.699,0,5-0.6,7.1-0.9c2-0.299,2.3,0.5,2.3,0.601h0.7V17.4h3.199v-0.7H203.4z"/> <polygon points="150.5,2.4 150.5,3.2 154.4,3.2 154.4,29.1 150.5,29.1 150.5,29.9 166.299,29.9 166.299,29.1 162.4,29.1 
			162.4,3.2 166.299,3.2 166.299,2.4 		"/> <path d="M128.7,21c-0.3,5.399-3.9,7.899-8.4,8.1H112V16.2c4.299,0,7.699,1.7,7.899,5.801h0.399V9.7H119.9
			c-0.2,4.1-3.7,5.8-7.899,5.8V3.2h7.5c4.5,0.2,8,2.7,8.399,8.1h0.601V2.5H100.2v0.7h4v26h-4v0.7h29.1v-8.8h-0.6V21z"/> <path d="M-57.5,23c-2.3-4.701-4.4-7-12.3-7l0,0c4.6-0.2,11.6-1.4,11.6-6.9c0-6-7.8-6.6-14.2-6.7l0,0h-12.4v0.7h4v26h-4v0.699h15.7
			V29.1H-73v-26h1.3c4.2,0,6.4,1.9,6.4,6.3c0,5.6-5.1,6.5-5.1,6.5c1.9,0.3,3.4,2.2,5.1,7.899c2.1,7.301,9.2,6,12.8,6v-0.6
			C-55.2,29.4-54.7,28.799-57.5,23z"/> <path d="M-106.1,2.4h-12.6v0.7h6.6v17.5c0,7.6-7.9,9.5-11.6,8c-3.1-1.2-2.9-7.301-2.9-9.2V3.2h3.3V2.4h-15.9v0.7h4V20
			c0,8.1,4.8,9.899,12.5,9.899c7.7,0,11.3-3.7,11.3-9.7v-17h5.3V2.4z"/> <path d="M-160.8,29.1l-13.5-28l-12.5,28h-3.9v0.699h9.3V29.1h-4.6l3.3-7.4h10l3.3,7.4h-4.1v0.699h15.9V29.1H-160.8z M-182.4,21
			l4.6-10.4L-173,21H-182.4z"/> <path d="M-0.8,29.1l-13.5-28l-12.5,28h-3.9v0.699h9.3V29.1H-26l3.3-7.4h10l3.3,7.4h-4.1v0.699H2.4V29.1H-0.8z M-22.4,21l4.6-10.4
			L-13,21H-22.4z"/> <path d="M-212.4,21c-0.3,5.399-3.9,7.899-8.4,8.1h-8.3v-26h4.6V2.4H-241v0.7h4v26h-4v0.699h29.1V21H-212.4z"/> <path d="M78.5,21C78.2,26.4,74.6,28.9,70.1,29.1h-8.301v-26H66.4V2.4H50v0.7h4v26h-4v0.699h29.1V21H78.5z"/> </g> </g> </symbol><symbol viewBox="0 0 515.9 31.2" id="shape-logo"><title>logo</title> <g id="svgstore9c4ab84608456cbe3c38091daaeb1938Small_Arrow" display="none"> <path display="inline" d="M255.6,10.9l4.699,4.7l-4.699,4.699V10.9L255.6,10.9z"/> </g> <g id="svgstore9c4ab84608456cbe3c38091daaeb1938Facebook" display="none"> <path id="svgstore9c4ab84608456cbe3c38091daaeb1938Facebook_3_" display="inline" d="M255.8,10.7c0,0.4,0,2.2,0,2.2h-1.6v2.7h1.6v8h3.301v-8h2.199c0,0,0.2-1.3,0.301-2.7
		c-0.301,0-2.5,0-2.5,0s0-1.6,0-1.8c0-0.3,0.399-0.6,0.699-0.6c0.4,0,1.101,0,1.801,0c0-0.4,0-1.6,0-2.8c-0.9,0-2,0-2.5,0
		C255.8,7.6,255.8,10.3,255.8,10.7z"/> </g> <g id="svgstore9c4ab84608456cbe3c38091daaeb1938Calendar" display="none"> <g display="inline"> <rect x="254.5" y="14.6" width="1" height="1"/> <rect x="256.5" y="14.6" width="1" height="1"/> <rect x="258.5" y="14.6" width="1" height="1"/> <rect x="260.5" y="14.6" width="1" height="1"/> <rect x="254.5" y="16.6" width="1" height="1"/> <rect x="256.5" y="16.6" width="1" height="1"/> <rect x="258.5" y="16.6" width="1" height="1"/> <rect x="260.5" y="16.6" width="1" height="1"/> <rect x="254.5" y="18.6" width="1" height="1"/> <rect x="256.5" y="18.6" width="1" height="1"/> <rect x="258.5" y="18.6" width="1" height="1"/> <rect x="260.5" y="18.6" width="1" height="1"/> <path d="M262.5,10.6h-1c0-0.6-0.399-1-1-1c-0.6,0-1,0.4-1,1h-3c0-0.6-0.399-1-1-1c-0.6,0-1,0.4-1,1h-1c-0.6,0-1,0.4-1,1v9
			c0,0.6,0.4,1,1,1h9c0.601,0,1-0.4,1-1v-9C263.5,11,263,10.6,262.5,10.6z M262.5,20.6h-9v-7h9V20.6z"/> </g> </g> <g id="svgstore9c4ab84608456cbe3c38091daaeb1938Category" display="none"> <g display="inline"> <rect x="254" y="11.6" width="11" height="2"/> <rect x="254" y="14.6" width="11" height="2"/> <rect x="254" y="17.6" width="11" height="2"/> <circle cx="252" cy="12.6" r="1"/> </g> </g> <g id="svgstore9c4ab84608456cbe3c38091daaeb1938Love" display="none"> <path display="inline" d="M258.2,21c-0.1,0.1-0.2,0.1-0.3,0.1c-0.101,0-0.2,0-0.3-0.1c-0.2-0.201-5.7-4.201-5.7-7.4
		c0-2.2,1.6-3.5,3.2-3.5c1,0,2.1,0.5,2.8,1.8c0.7-1.3,1.8-1.8,2.8-1.8c1.6,0,3.2,1.3,3.2,3.5C264,16.799,258.5,20.799,258.2,21z"/> </g> <g id="svgstore9c4ab84608456cbe3c38091daaeb1938Twitter" display="none"> <path display="inline" d="M266,10.6c-0.6,0.3-1.2,0.4-1.899,0.5c0.699-0.4,1.199-1,1.399-1.8c-0.6,0.4-1.3,0.6-2.1,0.8
		c-0.601-0.6-1.5-1-2.4-1c-1.8,0-3.3,1.5-3.3,3.3c0,0.3,0,0.5,0.1,0.7c-2.699-0.1-5.1-1.4-6.8-3.4c-0.3,0.5-0.399,1-0.399,1.6
		c0,1.1,0.6,2.1,1.5,2.7c-0.5,0-1-0.2-1.5-0.4l0,0c0,1.6,1.1,2.9,2.6,3.199c-0.3,0.101-0.6,0.101-0.9,0.101
		c-0.199,0-0.399,0-0.6-0.101c0.4,1.301,1.6,2.301,3.1,2.301c-1.1,0.9-2.5,1.4-4.1,1.4c-0.3,0-0.5,0-0.8,0c1.5,0.899,3.2,1.5,5,1.5
		c6,0,9.3-5,9.3-9.3c0-0.1,0-0.3,0-0.4C265,11.9,265.5,11.3,266,10.6z"/> </g> <g id="svgstore9c4ab84608456cbe3c38091daaeb1938Arrow" display="none"> <path display="inline" d="M265,29.6c-0.1,0-0.2,0-0.3-0.1l-14-13.5c-0.1-0.1-0.2-0.2-0.2-0.4c0-0.1,0.101-0.3,0.2-0.4l14-13.5
		c0.2-0.2,0.5-0.2,0.7,0c0.2,0.2,0.2,0.5,0,0.7L251.8,15.5L265.4,28.6c0.2,0.199,0.2,0.5,0,0.699C265.2,29.5,265.1,29.6,265,29.6z"/> </g> <g id="svgstore9c4ab84608456cbe3c38091daaeb1938Search" display="none"> <path display="inline" d="M265.7,21.2l-2.8-2.8c0.7-1.101,1.1-2.4,1.1-3.8c0-3.9-3.1-7-7-7c-3.899,0-7,3.1-7,7c0,3.9,3.101,7,7,7
		c1.4,0,2.7-0.4,3.8-1.1l2.801,2.799c0.199,0.201,0.5,0.201,0.699,0l1.4-1.399C265.9,21.7,265.9,21.4,265.7,21.2z M257.1,19.7
		c-2.801,0-5-2.199-5-5s2.199-5,5-5c2.8,0,5,2.2,5,5S259.8,19.7,257.1,19.7z"/> </g> <g id="svgstore9c4ab84608456cbe3c38091daaeb1938Pinterest" display="none"> <path display="inline" d="M256.9,18c-0.4,2.1-0.9,4.1-2.3,5.1c-0.4-3.2,0.699-5.5,1.199-8c-0.899-1.5,0.101-4.4,1.9-3.7
		c2.3,0.9-2,5.399,0.9,6c2.899,0.601,4.199-5.1,2.3-7c-2.601-2.7-7.7-0.1-7.101,3.8c0.2,0.9,1.101,1.2,0.4,2.5
		c-1.7-0.4-2.2-1.7-2.1-3.5c0.1-2.9,2.6-4.9,5.1-5.2c3.2-0.4,6.2,1.2,6.6,4.2c0.5,3.4-1.399,7-4.8,6.8C258,18.9,257.6,18.5,256.9,18
		"/> </g> <g id="svgstore9c4ab84608456cbe3c38091daaeb1938Instagram" display="none"> <g display="inline"> <path d="M263.9,7.6H252c-1.1,0-2.1,0.9-2.1,2.1v3.9h2h1.399c0.801-1.8,2.5-3,4.601-3c2.1,0,3.8,1.2,4.6,3h1.4h2v-4
			C266,8.5,265,7.6,263.9,7.6z M264,11.6h-2v-2h2V11.6z"/> <path d="M263,15.6c0,2.8-2.2,5-5,5s-5-2.2-5-5h-1h-2v5.9c0,1.1,0.9,2.1,2.101,2.1H264c1.101,0,2.101-0.9,2.101-2.1v-5.9h-2H263z"/> <circle cx="258" cy="15.6" r="3"/> </g> </g> <g id="svgstore9c4ab84608456cbe3c38091daaeb1938Plus" display="none"> <path display="inline" d="M272,15.1h-13.5V1.6c0-0.3-0.2-0.5-0.5-0.5s-0.5,0.2-0.5,0.5v13.5H244c-0.3,0-0.5,0.2-0.5,0.5
		c0,0.3,0.2,0.5,0.5,0.5h13.5v13.5c0,0.3,0.2,0.5,0.5,0.5s0.5-0.2,0.5-0.5V16.1H272c0.3,0,0.5-0.2,0.5-0.5
		C272.5,15.3,272.2,15.1,272,15.1z"/> </g> <g id="svgstore9c4ab84608456cbe3c38091daaeb1938Logo"> <g> <polygon points="499.301,2.4 499.301,3.2 502.6,3.2 502.6,15.6 493.301,15.6 493.301,3.2 496.6,3.2 496.6,2.4 481.4,2.4 
			481.4,3.2 485.4,3.2 485.4,29.1 481.4,29.1 481.4,29.9 496.6,29.9 496.6,29.1 493.301,29.1 493.301,16.299 502.6,16.299 
			502.6,29.1 499.301,29.1 499.301,29.9 514.501,29.9 514.501,29.1 510.501,29.1 510.501,3.2 514.501,3.2 514.501,2.4 		"/> <path d="M445.7,16.7v0.7h4v11.8c-1.3,0.2-9.899,1.1-9.899-13.1c0-3.8,0.399-13.3,7.3-13.3c8.4,0,9.8,9.6,9.8,10.3h0.7V2.4h-0.7
			v0.4c0,0.4-0.1,1-0.6,1.3c-0.5,0.4-1.4,0.3-2.601-0.2c-2.2-0.9-4.8-1.7-6.7-1.7c-11.5,0-15.899,8.4-15.899,14
			c0,9.9,9.6,14,15.7,14c3.7,0,5-0.6,7.1-0.9c2-0.299,2.3,0.5,2.3,0.601h0.7V17.4h3.2v-0.7H445.7z"/> <polygon points="392.801,2.4 392.801,3.2 396.801,3.2 396.801,29.1 392.801,29.1 392.801,29.9 408.7,29.9 408.7,29.1 404.7,29.1 
			404.7,3.2 408.7,3.2 408.7,2.4 		"/> <path d="M371.1,21c-0.3,5.399-3.9,7.899-8.4,8.1h-8.3V16.2c4.3,0,7.7,1.7,7.9,5.801h0.399V9.7h-0.399c-0.2,4.1-3.7,5.8-7.9,5.8
			V3.2h7.5c4.5,0.2,8,2.7,8.4,8.1h0.6V2.5h-28.3v0.7h4v26h-4v0.7h29.1v-8.8h-0.6V21z"/> <path d="M184.8,23c-2.3-4.701-4.399-7-12.3-7l0,0c4.601-0.2,11.601-1.4,11.601-6.9c0-6-7.801-6.6-14.2-6.7l0,0h-12.4v0.7h4v26h-4
			v0.699h15.7V29.1h-3.8v-26h1.3c4.2,0,6.4,1.9,6.4,6.3c0,5.6-5.101,6.5-5.101,6.5c1.9,0.3,3.4,2.2,5.101,7.899
			c2.1,7.301,9.199,6,12.8,6v-0.6C187.1,29.4,187.6,28.799,184.8,23z"/> <path d="M136.3,2.4h-12.6v0.7h6.6v17.5c0,7.6-7.899,9.5-11.6,8c-3.1-1.2-2.9-7.301-2.9-9.2V3.2h3.301V2.4h-15.9v0.7h4V20
			c0,8.1,4.8,9.899,12.5,9.899s11.3-3.7,11.3-9.7v-17h5.3V2.4z"/> <path d="M81.5,29.1L68,1.1l-12.5,28H51.6v0.699h9.3V29.1H56.3l3.301-7.4h10l3.3,7.4H68.8v0.699h15.9V29.1H81.5z M60,21L64.6,10.6
			L69.3,21H60z"/> <path d="M241.5,29.1L228,1.1l-12.5,28H211.6v0.699h9.3V29.1H216.3l3.301-7.4h10l3.3,7.4H228.8v0.699h15.9V29.1H241.5z M220,21
			l4.601-10.4L229.3,21H220z"/> <path d="M29.9,21C29.6,26.4,26,28.9,21.5,29.1h-8.3v-26h4.6V2.4H1.4v0.7h4v26h-4v0.699h29.1V21H29.9z"/> <path d="M320.9,21c-0.3,5.399-3.899,7.899-8.399,8.1H304.2v-26h4.601V2.4H292.3v0.7h4v26h-4v0.699H321.4V21H320.9z"/> </g> </g> </symbol><symbol viewBox="0 0 17 17" id="shape-love"><title>love</title> <g id="svgstoref20b27f0838e31a0b774e500433bbce0Small_Arrow" display="none"> <path display="inline" d="M6.2,3.8l4.7,4.7l-4.7,4.7V3.8z"/> </g> <g id="svgstoref20b27f0838e31a0b774e500433bbce0Facebook" display="none"> <path id="svgstoref20b27f0838e31a0b774e500433bbce0Facebook_3_" display="inline" d="M6.4,3.6c0,0.4,0,2.2,0,2.2H4.8v2.7h1.6v8h3.3v-8h2.2c0,0,0.199-1.3,0.3-2.7
		c-0.3,0-2.5,0-2.5,0s0-1.6,0-1.8c0-0.3,0.399-0.6,0.7-0.6c0.399,0,1.1,0,1.8,0c0-0.4,0-1.6,0-2.8c-0.9,0-2,0-2.5,0
		C6.3,0.5,6.4,3.2,6.4,3.6z"/> </g> <g id="svgstoref20b27f0838e31a0b774e500433bbce0Calendar" display="none"> <g display="inline"> <rect x="5" y="7.5" width="1" height="1"/> <rect x="7" y="7.5" width="1" height="1"/> <rect x="9" y="7.5" width="1" height="1"/> <rect x="11" y="7.5" width="1" height="1"/> <rect x="5" y="9.5" width="1" height="1"/> <rect x="7" y="9.5" width="1" height="1"/> <rect x="9" y="9.5" width="1" height="1"/> <rect x="11" y="9.5" width="1" height="1"/> <rect x="5" y="11.5" width="1" height="1"/> <rect x="7" y="11.5" width="1" height="1"/> <rect x="9" y="11.5" width="1" height="1"/> <rect x="11" y="11.5" width="1" height="1"/> <path d="M13,3.5h-1c0-0.6-0.4-1-1-1s-1,0.4-1,1H7c0-0.6-0.4-1-1-1S5,3,5,3.5H4c-0.6,0-1,0.4-1,1v9c0,0.6,0.4,1,1,1h9
			c0.6,0,1-0.4,1-1v-9C14,4,13.6,3.5,13,3.5z M13,13.5H4v-7h9V13.5z"/> </g> </g> <g id="svgstoref20b27f0838e31a0b774e500433bbce0Category" display="none"> <g display="inline"> <rect x="4.5" y="4.5" width="11" height="2"/> <rect x="4.5" y="7.5" width="11" height="2"/> <rect x="4.5" y="10.5" width="11" height="2"/> <circle cx="2.5" cy="5.5" r="1"/> </g> </g> <g id="svgstoref20b27f0838e31a0b774e500433bbce0Love"> <path d="M8.8,13.9C8.7,14,8.6,14,8.5,14s-0.2,0-0.3-0.1C8,13.7,2.5,9.7,2.5,6.5C2.5,4.3,4.1,3,5.7,3c1,0,2.1,0.5,2.8,1.8
		C9.2,3.5,10.3,3,11.3,3c1.601,0,3.2,1.3,3.2,3.5C14.5,9.7,9,13.7,8.8,13.9z"/> </g> <g id="svgstoref20b27f0838e31a0b774e500433bbce0Twitter" display="none"> <path display="inline" d="M16.5,3.5c-0.6,0.3-1.2,0.4-1.9,0.5c0.7-0.4,1.2-1,1.4-1.8c-0.6,0.4-1.3,0.7-2,0.8c-0.6-0.6-1.5-1-2.4-1
		C9.8,2,8.3,3.5,8.3,5.3c0,0.3,0,0.5,0.1,0.7C5.7,5.9,3.2,4.6,1.6,2.6c-0.3,0.5-0.4,1-0.4,1.6c0,1.1,0.6,2.1,1.5,2.7
		c-0.5,0-1-0.2-1.5-0.4l0,0c0,1.6,1.1,2.9,2.6,3.2C3.5,9.9,3.2,10,2.9,10c-0.2,0-0.4,0-0.6-0.1c0.4,1.3,1.6,2.3,3.1,2.3
		C4.3,13.1,2.9,13.6,1.3,13.6c-0.3,0-0.5,0-0.8,0C2,14.5,3.7,15,5.5,15c6,0,9.3-5,9.3-9.3c0-0.1,0-0.3,0-0.4
		C15.5,4.8,16.1,4.2,16.5,3.5z"/> </g> <g id="svgstoref20b27f0838e31a0b774e500433bbce0Arrow" display="none"> <path display="inline" d="M15.5,22.5c-0.1,0-0.2,0-0.3-0.1L1.2,8.9C1.1,8.8,1,8.6,1,8.5s0.1-0.3,0.2-0.4l14-13.5
		c0.2-0.2,0.5-0.2,0.7,0c0.199,0.2,0.199,0.5,0,0.7L2.2,8.5l13.6,13.1c0.2,0.2,0.2,0.5,0,0.7C15.8,22.5,15.6,22.5,15.5,22.5z"/> </g> <g id="svgstoref20b27f0838e31a0b774e500433bbce0Search" display="none"> <path display="inline" d="M16.3,14.1l-2.8-2.8c0.7-1.1,1.1-2.4,1.1-3.8c0-3.9-3.1-7-7-7s-7,3.1-7,7c0,3.9,3.1,7,7,7
		c1.4,0,2.7-0.4,3.8-1.1l2.8,2.8c0.2,0.2,0.5,0.2,0.7,0l1.399-1.4C16.4,14.6,16.4,14.3,16.3,14.1z M7.6,12.6c-2.8,0-5-2.199-5-5
		s2.2-5,5-5s5,2.2,5,5S10.4,12.6,7.6,12.6z"/> </g> <g id="svgstoref20b27f0838e31a0b774e500433bbce0Pinterest" display="none"> <path display="inline" d="M7.5,10.9C7.1,13,6.6,15,5.1,16.1c-0.4-3.199,0.7-5.5,1.2-8C5.4,6.6,6.4,3.6,8.2,4.4
		c2.3,0.9-2,5.4,0.899,6C12,11,13.3,5.3,11.4,3.4C8.8,0.7,3.7,3.3,4.4,7.2c0.2,0.9,1.1,1.2,0.4,2.5C3.1,9.3,2.6,8,2.6,6.2
		C2.7,3.3,5.2,1.3,7.7,1c3.2-0.4,6.2,1.2,6.6,4.2c0.5,3.4-1.399,7-4.8,6.8C8.6,11.8,8.2,11.4,7.5,10.9"/> </g> <g id="svgstoref20b27f0838e31a0b774e500433bbce0Instagram" display="none"> <g display="inline"> <path d="M14.5,0.5H2.6c-1.1,0-2.1,0.9-2.1,2.1v3.9h2h1.4c0.8-1.8,2.5-3,4.6-3c2.1,0,3.8,1.2,4.6,3h1.4h2V2.6
			C16.5,1.4,15.6,0.5,14.5,0.5z M14.5,4.5h-2v-2h2V4.5z"/> <path d="M13.5,8.5c0,2.8-2.2,5-5,5s-5-2.2-5-5h-1h-2v5.9c0,1.1,0.9,2.1,2.1,2.1h11.9c1.1,0,2.1-0.9,2.1-2.1V8.5h-2H13.5z"/> <circle cx="8.5" cy="8.5" r="3"/> </g> </g> <g id="svgstoref20b27f0838e31a0b774e500433bbce0Plus" display="none"> <path display="inline" d="M22.5,8H9V-5.5C9-5.8,8.8-6,8.5-6S8-5.8,8-5.5V8H-5.5C-5.8,8-6,8.2-6,8.5S-5.8,9-5.5,9H8v13.5
		C8,22.8,8.2,23,8.5,23S9,22.8,9,22.5V9h13.5C22.8,9,23,8.8,23,8.5S22.8,8,22.5,8z"/> </g> <g id="svgstoref20b27f0838e31a0b774e500433bbce0Logo" display="none"> <g display="inline"> <polygon points="249.8,-4.7 249.8,-3.9 253.1,-3.9 253.1,8.5 243.9,8.5 243.9,-3.9 247.2,-3.9 247.2,-4.7 232,-4.7 232,-3.9 
			235.9,-3.9 235.9,22 232,22 232,22.8 247.2,22.8 247.2,22 243.9,22 243.9,9.2 253.1,9.2 253.1,22 249.8,22 249.8,22.8 265,22.8 
			265,22 261.1,22 261.1,-3.9 265,-3.9 265,-4.7 		"/> <path d="M196.3,9.6v0.7h4v11.8C199,22.3,190.4,23.2,190.4,9c0-3.8,0.399-13.3,7.3-13.3c8.399,0,9.8,9.6,9.8,10.3h0.7V-4.7h-0.7
			v0.4c0,0.4-0.1,1-0.6,1.3c-0.5,0.4-1.4,0.3-2.601-0.2c-2.2-0.9-4.8-1.7-6.7-1.7c-11.5,0-15.899,8.4-15.899,14
			c0,9.9,9.6,14,15.7,14c3.699,0,5-0.6,7.1-0.899c2-0.3,2.3,0.5,2.3,0.6h0.7V10.3h3.2V9.6H196.3z"/> <polygon points="143.4,-4.7 143.4,-3.9 147.4,-3.9 147.4,22 143.4,22 143.4,22.8 159.2,22.8 159.2,22 155.3,22 155.3,-3.9 
			159.2,-3.9 159.2,-4.7 		"/> <path d="M121.7,14c-0.3,5.4-3.9,7.9-8.4,8.1H105v-13c4.3,0,7.7,1.7,7.9,5.801h0.399V2.6H113c-0.2,4.1-3.7,5.8-7.9,5.8V-3.9h7.5
			c4.5,0.2,8,2.7,8.4,8.1h0.6v-8.8H93.1v0.7h4v26h-4v0.7H122.2V14H121.7z"/> <path d="M-64.6,15.9c-2.3-4.7-4.4-7-12.3-7l0,0c4.6-0.2,11.6-1.4,11.6-6.9c0-6-7.8-6.6-14.2-6.7l0,0H-92V-4h4v26h-4v0.7h15.7V22
			h-3.8V-4h1.3c4.2,0,6.4,1.9,6.4,6.3c0,5.6-5.1,6.5-5.1,6.5c1.9,0.3,3.4,2.2,5.1,7.9c2.1,7.3,9.2,6,12.8,6V22.1
			C-62.3,22.3-61.8,21.8-64.6,15.9z"/> <path d="M-113.2-4.7h-12.6V-4h6.6v17.5c0,7.6-7.9,9.5-11.6,8c-3.1-1.2-2.9-7.3-2.9-9.2V-3.9h3.3v-0.7h-15.9v0.7h4V13
			c0,8.1,4.8,9.9,12.5,9.9c7.7,0,11.3-3.7,11.3-9.7v-17h5.3V-4.7L-113.2-4.7z"/> <path d="M-167.9,22l-13.5-28l-12.5,28h-3.9v0.7h9.3V22h-4.6l3.3-7.4h10l3.3,7.4h-4.1v0.7h15.9V22H-167.9z M-189.5,13.9l4.6-10.4
			l4.7,10.4H-189.5z"/> <path d="M-7.9,22L-21.4-6l-12.5,28h-3.9v0.7h9.3V22h-4.6l3.3-7.4h10l3.3,7.4h-4.1v0.7h15.9V22H-7.9z M-29.5,13.9l4.6-10.4
			l4.7,10.4H-29.5z"/> <path d="M-219.5,14c-0.3,5.4-3.9,7.9-8.4,8.1h-8.3v-26h4.6v-0.7H-248v0.7h4v26h-4v0.7h29.1V14H-219.5z"/> <path d="M71.4,14c-0.301,5.4-3.9,7.9-8.4,8.1h-8.3v-26h4.6v-0.7H42.9v0.7h4v26h-4v0.7H72V14H71.4z"/> </g> </g> </symbol><symbol viewBox="0 0 17 17" id="shape-pinterest"><title>pinterest</title> <g id="svgstorec35722d1726439f3841959789c87a9f0Small_Arrow" display="none"> <path display="inline" d="M6.2,3.8l4.7,4.7l-4.7,4.7V3.8z"/> </g> <g id="svgstorec35722d1726439f3841959789c87a9f0Facebook" display="none"> <path id="svgstorec35722d1726439f3841959789c87a9f0Facebook_3_" display="inline" d="M6.4,3.6c0,0.4,0,2.2,0,2.2H4.8v2.7h1.6v8h3.3v-8h2.2c0,0,0.199-1.3,0.3-2.7
		c-0.3,0-2.5,0-2.5,0s0-1.6,0-1.8c0-0.3,0.399-0.6,0.7-0.6c0.399,0,1.1,0,1.8,0c0-0.4,0-1.6,0-2.8c-0.9,0-2,0-2.5,0
		C6.3,0.5,6.4,3.2,6.4,3.6z"/> </g> <g id="svgstorec35722d1726439f3841959789c87a9f0Calendar" display="none"> <g display="inline"> <rect x="5" y="7.5" width="1" height="1"/> <rect x="7" y="7.5" width="1" height="1"/> <rect x="9" y="7.5" width="1" height="1"/> <rect x="11" y="7.5" width="1" height="1"/> <rect x="5" y="9.5" width="1" height="1"/> <rect x="7" y="9.5" width="1" height="1"/> <rect x="9" y="9.5" width="1" height="1"/> <rect x="11" y="9.5" width="1" height="1"/> <rect x="5" y="11.5" width="1" height="1"/> <rect x="7" y="11.5" width="1" height="1"/> <rect x="9" y="11.5" width="1" height="1"/> <rect x="11" y="11.5" width="1" height="1"/> <path d="M13,3.5h-1c0-0.6-0.4-1-1-1s-1,0.4-1,1H7c0-0.6-0.4-1-1-1S5,3,5,3.5H4c-0.6,0-1,0.4-1,1v9c0,0.6,0.4,1,1,1h9
			c0.6,0,1-0.4,1-1v-9C14,4,13.6,3.5,13,3.5z M13,13.5H4v-7h9V13.5z"/> </g> </g> <g id="svgstorec35722d1726439f3841959789c87a9f0Category" display="none"> <g display="inline"> <rect x="4.5" y="4.5" width="11" height="2"/> <rect x="4.5" y="7.5" width="11" height="2"/> <rect x="4.5" y="10.5" width="11" height="2"/> <circle cx="2.5" cy="5.5" r="1"/> </g> </g> <g id="svgstorec35722d1726439f3841959789c87a9f0Love" display="none"> <path display="inline" d="M8.8,13.9C8.7,14,8.6,14,8.5,14s-0.2,0-0.3-0.1C8,13.7,2.5,9.7,2.5,6.5C2.5,4.3,4.1,3,5.7,3
		c1,0,2.1,0.5,2.8,1.8C9.2,3.5,10.3,3,11.3,3c1.601,0,3.2,1.3,3.2,3.5C14.5,9.7,9,13.7,8.8,13.9z"/> </g> <g id="svgstorec35722d1726439f3841959789c87a9f0Twitter" display="none"> <path display="inline" d="M16.5,3.5c-0.6,0.3-1.2,0.4-1.9,0.5c0.7-0.4,1.2-1,1.4-1.8c-0.6,0.4-1.3,0.7-2,0.8c-0.6-0.6-1.5-1-2.4-1
		C9.8,2,8.3,3.5,8.3,5.3c0,0.3,0,0.5,0.1,0.7C5.7,5.9,3.2,4.6,1.6,2.6c-0.3,0.5-0.4,1-0.4,1.6c0,1.1,0.6,2.1,1.5,2.7
		c-0.5,0-1-0.2-1.5-0.4l0,0c0,1.6,1.1,2.9,2.6,3.2C3.5,9.9,3.2,10,2.9,10c-0.2,0-0.4,0-0.6-0.1c0.4,1.3,1.6,2.3,3.1,2.3
		C4.3,13.1,2.9,13.6,1.3,13.6c-0.3,0-0.5,0-0.8,0C2,14.5,3.7,15,5.5,15c6,0,9.3-5,9.3-9.3c0-0.1,0-0.3,0-0.4
		C15.5,4.8,16.1,4.2,16.5,3.5z"/> </g> <g id="svgstorec35722d1726439f3841959789c87a9f0Arrow" display="none"> <path display="inline" d="M15.5,22.5c-0.1,0-0.2,0-0.3-0.1L1.2,8.9C1.1,8.8,1,8.6,1,8.5s0.1-0.3,0.2-0.4l14-13.5
		c0.2-0.2,0.5-0.2,0.7,0c0.199,0.2,0.199,0.5,0,0.7L2.2,8.5l13.6,13.1c0.2,0.2,0.2,0.5,0,0.7C15.8,22.5,15.6,22.5,15.5,22.5z"/> </g> <g id="svgstorec35722d1726439f3841959789c87a9f0Search" display="none"> <path display="inline" d="M16.3,14.1l-2.8-2.8c0.7-1.1,1.1-2.4,1.1-3.8c0-3.9-3.1-7-7-7s-7,3.1-7,7c0,3.9,3.1,7,7,7
		c1.4,0,2.7-0.4,3.8-1.1l2.8,2.8c0.2,0.2,0.5,0.2,0.7,0l1.399-1.4C16.4,14.6,16.4,14.3,16.3,14.1z M7.6,12.6c-2.8,0-5-2.199-5-5
		s2.2-5,5-5s5,2.2,5,5S10.4,12.6,7.6,12.6z"/> </g> <g id="svgstorec35722d1726439f3841959789c87a9f0Pinterest"> <path d="M7.5,10.9C7.1,13,6.6,15,5.1,16.1c-0.4-3.199,0.7-5.5,1.2-8C5.4,6.6,6.4,3.6,8.2,4.4c2.3,0.9-2,5.4,0.899,6
		C12,11,13.3,5.3,11.4,3.4C8.8,0.7,3.7,3.3,4.4,7.2c0.2,0.9,1.1,1.2,0.4,2.5C3.1,9.3,2.6,8,2.6,6.2C2.7,3.3,5.2,1.3,7.7,1
		c3.2-0.4,6.2,1.2,6.6,4.2c0.5,3.4-1.399,7-4.8,6.8C8.6,11.8,8.2,11.4,7.5,10.9"/> </g> <g id="svgstorec35722d1726439f3841959789c87a9f0Instagram" display="none"> <g display="inline"> <path d="M14.5,0.5H2.6c-1.1,0-2.1,0.9-2.1,2.1v3.9h2h1.4c0.8-1.8,2.5-3,4.6-3c2.1,0,3.8,1.2,4.6,3h1.4h2V2.6
			C16.5,1.4,15.6,0.5,14.5,0.5z M14.5,4.5h-2v-2h2V4.5z"/> <path d="M13.5,8.5c0,2.8-2.2,5-5,5s-5-2.2-5-5h-1h-2v5.9c0,1.1,0.9,2.1,2.1,2.1h11.9c1.1,0,2.1-0.9,2.1-2.1V8.5h-2H13.5z"/> <circle cx="8.5" cy="8.5" r="3"/> </g> </g> <g id="svgstorec35722d1726439f3841959789c87a9f0Plus" display="none"> <path display="inline" d="M22.5,8H9V-5.5C9-5.8,8.8-6,8.5-6S8-5.8,8-5.5V8H-5.5C-5.8,8-6,8.2-6,8.5S-5.8,9-5.5,9H8v13.5
		C8,22.8,8.2,23,8.5,23S9,22.8,9,22.5V9h13.5C22.8,9,23,8.8,23,8.5S22.8,8,22.5,8z"/> </g> <g id="svgstorec35722d1726439f3841959789c87a9f0Logo" display="none"> <g display="inline"> <polygon points="249.8,-4.7 249.8,-3.9 253.1,-3.9 253.1,8.5 243.9,8.5 243.9,-3.9 247.2,-3.9 247.2,-4.7 232,-4.7 232,-3.9 
			235.9,-3.9 235.9,22 232,22 232,22.8 247.2,22.8 247.2,22 243.9,22 243.9,9.2 253.1,9.2 253.1,22 249.8,22 249.8,22.8 265,22.8 
			265,22 261.1,22 261.1,-3.9 265,-3.9 265,-4.7 		"/> <path d="M196.3,9.6v0.7h4v11.8C199,22.3,190.4,23.2,190.4,9c0-3.8,0.399-13.3,7.3-13.3c8.399,0,9.8,9.6,9.8,10.3h0.7V-4.7h-0.7
			v0.4c0,0.4-0.1,1-0.6,1.3c-0.5,0.4-1.4,0.3-2.601-0.2c-2.2-0.9-4.8-1.7-6.7-1.7c-11.5,0-15.899,8.4-15.899,14
			c0,9.9,9.6,14,15.7,14c3.699,0,5-0.6,7.1-0.899c2-0.3,2.3,0.5,2.3,0.6h0.7V10.3h3.2V9.6H196.3z"/> <polygon points="143.4,-4.7 143.4,-3.9 147.4,-3.9 147.4,22 143.4,22 143.4,22.8 159.2,22.8 159.2,22 155.3,22 155.3,-3.9 
			159.2,-3.9 159.2,-4.7 		"/> <path d="M121.7,14c-0.3,5.4-3.9,7.9-8.4,8.1H105v-13c4.3,0,7.7,1.7,7.9,5.801h0.399V2.6H113c-0.2,4.1-3.7,5.8-7.9,5.8V-3.9h7.5
			c4.5,0.2,8,2.7,8.4,8.1h0.6v-8.8H93.1v0.7h4v26h-4v0.7H122.2V14H121.7z"/> <path d="M-64.6,15.9c-2.3-4.7-4.4-7-12.3-7l0,0c4.6-0.2,11.6-1.4,11.6-6.9c0-6-7.8-6.6-14.2-6.7l0,0H-92V-4h4v26h-4v0.7h15.7V22
			h-3.8V-4h1.3c4.2,0,6.4,1.9,6.4,6.3c0,5.6-5.1,6.5-5.1,6.5c1.9,0.3,3.4,2.2,5.1,7.9c2.1,7.3,9.2,6,12.8,6V22.1
			C-62.3,22.3-61.8,21.8-64.6,15.9z"/> <path d="M-113.2-4.7h-12.6V-4h6.6v17.5c0,7.6-7.9,9.5-11.6,8c-3.1-1.2-2.9-7.3-2.9-9.2V-3.9h3.3v-0.7h-15.9v0.7h4V13
			c0,8.1,4.8,9.9,12.5,9.9c7.7,0,11.3-3.7,11.3-9.7v-17h5.3V-4.7L-113.2-4.7z"/> <path d="M-167.9,22l-13.5-28l-12.5,28h-3.9v0.7h9.3V22h-4.6l3.3-7.4h10l3.3,7.4h-4.1v0.7h15.9V22H-167.9z M-189.5,13.9l4.6-10.4
			l4.7,10.4H-189.5z"/> <path d="M-7.9,22L-21.4-6l-12.5,28h-3.9v0.7h9.3V22h-4.6l3.3-7.4h10l3.3,7.4h-4.1v0.7h15.9V22H-7.9z M-29.5,13.9l4.6-10.4
			l4.7,10.4H-29.5z"/> <path d="M-219.5,14c-0.3,5.4-3.9,7.9-8.4,8.1h-8.3v-26h4.6v-0.7H-248v0.7h4v26h-4v0.7h29.1V14H-219.5z"/> <path d="M71.4,14c-0.301,5.4-3.9,7.9-8.4,8.1h-8.3v-26h4.6v-0.7H42.9v0.7h4v26h-4v0.7H72V14H71.4z"/> </g> </g> </symbol><symbol viewBox="0 0 31.2 31.2" id="shape-plus"><title>plus</title> <g id="svgstore804638de14b9557c64455bedf44c110fSmall_Arrow" display="none"> <path display="inline" d="M13.3,10.9L18,15.6L13.3,20.299V10.9z"/> </g> <g id="svgstore804638de14b9557c64455bedf44c110fFacebook" display="none"> <path id="svgstore804638de14b9557c64455bedf44c110fFacebook_3_" display="inline" d="M13.5,10.7c0,0.4,0,2.2,0,2.2h-1.6v2.7h1.6v8h3.299v-8H19c0,0,0.199-1.3,0.299-2.7
		c-0.299,0-2.5,0-2.5,0s0-1.6,0-1.8c0-0.3,0.4-0.6,0.701-0.6c0.399,0,1.1,0,1.799,0c0-0.4,0-1.6,0-2.8c-0.899,0-2,0-2.5,0
		C13.4,7.6,13.5,10.3,13.5,10.7z"/> </g> <g id="svgstore804638de14b9557c64455bedf44c110fCalendar" display="none"> <g display="inline"> <rect x="12.1" y="14.6" width="1" height="1"/> <rect x="14.1" y="14.6" width="1" height="1"/> <rect x="16.1" y="14.6" width="1" height="1"/> <rect x="18.1" y="14.6" width="1" height="1"/> <rect x="12.1" y="16.6" width="1" height="1"/> <rect x="14.1" y="16.6" width="1" height="1"/> <rect x="16.1" y="16.6" width="1" height="1"/> <rect x="18.1" y="16.6" width="1" height="1"/> <rect x="12.1" y="18.6" width="1" height="1"/> <rect x="14.1" y="18.6" width="1" height="1"/> <rect x="16.1" y="18.6" width="1" height="1"/> <rect x="18.1" y="18.6" width="1" height="1"/> <path d="M20.1,10.6h-1c0-0.6-0.4-1-1-1s-1,0.4-1,1h-3c0-0.6-0.4-1-1-1s-1,0.4-1,1h-1c-0.6,0-1,0.4-1,1v9c0,0.6,0.4,1,1,1h9
			c0.6,0,1-0.4,1-1v-9C21.1,11,20.6,10.6,20.1,10.6z M20.1,20.6h-9v-7h9V20.6z"/> </g> </g> <g id="svgstore804638de14b9557c64455bedf44c110fCategory" display="none"> <g display="inline"> <rect x="11.6" y="11.6" width="11" height="2"/> <rect x="11.6" y="14.6" width="11" height="2"/> <rect x="11.6" y="17.6" width="11" height="2"/> <circle cx="9.6" cy="12.6" r="1"/> </g> </g> <g id="svgstore804638de14b9557c64455bedf44c110fLove" display="none"> <path display="inline" d="M15.9,21c-0.1,0.1-0.2,0.1-0.3,0.1s-0.2,0-0.3-0.1c-0.2-0.201-5.7-4.201-5.7-7.4c0-2.2,1.6-3.5,3.2-3.5
		c1,0,2.1,0.5,2.8,1.8c0.699-1.3,1.8-1.8,2.8-1.8c1.601,0,3.2,1.3,3.2,3.5C21.6,16.799,16.1,20.799,15.9,21z"/> </g> <g id="svgstore804638de14b9557c64455bedf44c110fTwitter" display="none"> <path display="inline" d="M23.6,10.6c-0.6,0.3-1.2,0.4-1.9,0.5c0.7-0.4,1.2-1,1.4-1.8c-0.6,0.4-1.301,0.6-2.1,0.8
		c-0.601-0.6-1.5-1-2.4-1c-1.801,0-3.3,1.5-3.3,3.3c0,0.3,0,0.5,0.1,0.7c-2.7-0.1-5.1-1.4-6.8-3.4c-0.3,0.5-0.4,1-0.4,1.6
		c0,1.1,0.6,2.1,1.5,2.7c-0.5,0-1-0.2-1.5-0.4l0,0c0,1.6,1.1,2.9,2.6,3.199C10.6,17,10.3,17,10,17c-0.2,0-0.4,0-0.6-0.101
		c0.4,1.3,1.6,2.3,3.1,2.3c-1.1,0.9-2.5,1.4-4.1,1.4c-0.3,0-0.5,0-0.8,0c1.5,0.9,3.2,1.5,5,1.5c6,0,9.3-5,9.3-9.3c0-0.1,0-0.3,0-0.4
		C22.6,11.9,23.2,11.3,23.6,10.6z"/> </g> <g id="svgstore804638de14b9557c64455bedf44c110fArrow" display="none"> <path display="inline" d="M22.6,29.6c-0.1,0-0.2,0-0.301-0.1L8.3,16c-0.1-0.1-0.2-0.2-0.2-0.4c0-0.1,0.1-0.3,0.2-0.4l14-13.5
		c0.201-0.2,0.5-0.2,0.701,0C23.2,1.9,23.2,2.2,23,2.4L9.3,15.6l13.6,13.1c0.2,0.2,0.2,0.5,0,0.7C22.9,29.5,22.7,29.6,22.6,29.6z"/> </g> <g id="svgstore804638de14b9557c64455bedf44c110fSearch" display="none"> <path display="inline" d="M23.299,21.2L20.5,18.4c0.699-1.101,1.1-2.4,1.1-3.8c0-3.9-3.1-7-7-7c-3.9,0-7,3.1-7,7c0,3.9,3.1,7,7,7
		c1.4,0,2.699-0.4,3.8-1.1l2.8,2.799c0.2,0.201,0.5,0.201,0.7,0l1.399-1.399C23.5,21.7,23.5,21.4,23.299,21.2z M14.7,19.7
		c-2.8,0-5-2.199-5-5s2.2-5,5-5s5,2.2,5,5S17.5,19.7,14.7,19.7z"/> </g> <g id="svgstore804638de14b9557c64455bedf44c110fPinterest" display="none"> <path display="inline" d="M14.5,18c-0.4,2.1-0.9,4.1-2.3,5.1c-0.4-3.2,0.7-5.5,1.2-8c-0.9-1.5,0.1-4.4,1.9-3.7
		c2.3,0.9-2,5.399,0.9,6c2.9,0.601,4.2-5.1,2.301-7C15.9,7.7,10.8,10.3,11.4,14.2c0.2,0.9,1.1,1.2,0.4,2.5c-1.7-0.4-2.2-1.7-2.1-3.5
		c0.1-2.9,2.6-4.9,5.1-5.2C18,7.6,21,9.2,21.4,12.2c0.5,3.4-1.399,7-4.8,6.8C15.7,18.9,15.3,18.5,14.5,18"/> </g> <g id="svgstore804638de14b9557c64455bedf44c110fInstagram" display="none"> <g display="inline"> <path d="M21.5,7.6H9.6c-1.1,0-2.1,0.9-2.1,2.1v3.9h2H11c0.8-1.8,2.5-3,4.6-3c2.1,0,3.8,1.2,4.6,3h1.4h2v-4
			C23.6,8.5,22.7,7.6,21.5,7.6z M21.6,11.6h-2v-2h2V11.6z"/> <path d="M20.6,15.6c0,2.8-2.2,5-5,5c-2.8,0-5-2.2-5-5h-1h-2v5.9c0,1.1,0.9,2.1,2.1,2.1h11.9c1.1,0,2.1-0.9,2.1-2.1v-5.9h-2H20.6z"/> <circle cx="15.6" cy="15.6" r="3"/> </g> </g> <g id="svgstore804638de14b9557c64455bedf44c110fPlus"> <path d="M29.6,15.1H16.1V1.6c0-0.301-0.2-0.5-0.5-0.5c-0.301,0-0.5,0.199-0.5,0.5v13.5H1.6c-0.301,0-0.5,0.199-0.5,0.5
		c0,0.3,0.199,0.5,0.5,0.5h13.5v13.5c0,0.3,0.199,0.5,0.5,0.5c0.3,0,0.5-0.2,0.5-0.5V16.1h13.5c0.3,0,0.5-0.2,0.5-0.5
		C30.1,15.299,29.9,15.1,29.6,15.1z"/> </g> <g id="svgstore804638de14b9557c64455bedf44c110fLogo" display="none"> <g display="inline"> <polygon points="256.9,2.4 256.9,3.2 260.2,3.2 260.2,15.6 251,15.6 251,3.2 254.299,3.2 254.299,2.4 239.1,2.4 239.1,3.2 
			243,3.2 243,29.1 239.1,29.1 239.1,29.9 254.299,29.9 254.299,29.1 251,29.1 251,16.299 260.2,16.299 260.2,29.1 256.9,29.1 
			256.9,29.9 272.1,29.9 272.1,29.1 268.2,29.1 268.2,3.2 272.1,3.2 272.1,2.4 		"/> <path d="M203.4,16.7v0.7h4v11.8c-1.3,0.2-9.899,1.1-9.899-13.1c0-3.8,0.399-13.3,7.299-13.3c8.4,0,9.801,9.6,9.801,10.3h0.699V2.4
			H214.6v0.4c0,0.4-0.1,1-0.6,1.3c-0.5,0.4-1.4,0.3-2.601-0.2c-2.2-0.9-4.8-1.7-6.7-1.7c-11.5,0-15.9,8.4-15.9,14
			c0,9.9,9.601,14,15.701,14c3.699,0,5-0.6,7.1-0.9c2-0.299,2.3,0.5,2.3,0.601h0.7V17.4h3.199v-0.7H203.4z"/> <polygon points="150.5,2.4 150.5,3.2 154.4,3.2 154.4,29.1 150.5,29.1 150.5,29.9 166.299,29.9 166.299,29.1 162.4,29.1 
			162.4,3.2 166.299,3.2 166.299,2.4 		"/> <path d="M128.7,21c-0.3,5.399-3.9,7.899-8.4,8.1H112V16.2c4.299,0,7.699,1.7,7.899,5.801h0.399V9.7H119.9
			c-0.2,4.1-3.7,5.8-7.899,5.8V3.2h7.5c4.5,0.2,8,2.7,8.399,8.1h0.601V2.5H100.2v0.7h4v26h-4v0.7h29.1v-8.8h-0.6V21z"/> <path d="M-57.5,23c-2.3-4.701-4.4-7-12.3-7l0,0c4.6-0.2,11.6-1.4,11.6-6.9c0-6-7.8-6.6-14.2-6.7l0,0h-12.4v0.7h4v26h-4v0.699h15.7
			V29.1H-73v-26h1.3c4.2,0,6.4,1.9,6.4,6.3c0,5.6-5.1,6.5-5.1,6.5c1.9,0.3,3.4,2.2,5.1,7.899c2.1,7.301,9.2,6,12.8,6v-0.6
			C-55.2,29.4-54.7,28.799-57.5,23z"/> <path d="M-106.1,2.4h-12.6v0.7h6.6v17.5c0,7.6-7.9,9.5-11.6,8c-3.1-1.2-2.9-7.301-2.9-9.2V3.2h3.3V2.4h-15.9v0.7h4V20
			c0,8.1,4.8,9.899,12.5,9.899c7.7,0,11.3-3.7,11.3-9.7v-17h5.3V2.4z"/> <path d="M-160.8,29.1l-13.5-28l-12.5,28h-3.9v0.699h9.3V29.1h-4.6l3.3-7.4h10l3.3,7.4h-4.1v0.699h15.9V29.1H-160.8z M-182.4,21
			l4.6-10.4L-173,21H-182.4z"/> <path d="M-0.8,29.1l-13.5-28l-12.5,28h-3.9v0.699h9.3V29.1H-26l3.3-7.4h10l3.3,7.4h-4.1v0.699H2.4V29.1H-0.8z M-22.4,21l4.6-10.4
			L-13,21H-22.4z"/> <path d="M-212.4,21c-0.3,5.399-3.9,7.899-8.4,8.1h-8.3v-26h4.6V2.4H-241v0.7h4v26h-4v0.699h29.1V21H-212.4z"/> <path d="M78.5,21C78.2,26.4,74.6,28.9,70.1,29.1h-8.301v-26H66.4V2.4H50v0.7h4v26h-4v0.699h29.1V21H78.5z"/> </g> </g> </symbol><symbol viewBox="0 0 17 17" id="shape-search"><title>search</title> <g id="svgstore64eb2b7c30f1bbb9a8701cec22d9a18cSmall_Arrow" display="none"> <path display="inline" d="M6.2,3.8l4.7,4.7l-4.7,4.7V3.8z"/> </g> <g id="svgstore64eb2b7c30f1bbb9a8701cec22d9a18cFacebook" display="none"> <path id="svgstore64eb2b7c30f1bbb9a8701cec22d9a18cFacebook_3_" display="inline" d="M6.4,3.6c0,0.4,0,2.2,0,2.2H4.8v2.7h1.6v8h3.3v-8h2.2c0,0,0.199-1.3,0.3-2.7
		c-0.3,0-2.5,0-2.5,0s0-1.6,0-1.8c0-0.3,0.399-0.6,0.7-0.6c0.399,0,1.1,0,1.8,0c0-0.4,0-1.6,0-2.8c-0.9,0-2,0-2.5,0
		C6.3,0.5,6.4,3.2,6.4,3.6z"/> </g> <g id="svgstore64eb2b7c30f1bbb9a8701cec22d9a18cCalendar" display="none"> <g display="inline"> <rect x="5" y="7.5" width="1" height="1"/> <rect x="7" y="7.5" width="1" height="1"/> <rect x="9" y="7.5" width="1" height="1"/> <rect x="11" y="7.5" width="1" height="1"/> <rect x="5" y="9.5" width="1" height="1"/> <rect x="7" y="9.5" width="1" height="1"/> <rect x="9" y="9.5" width="1" height="1"/> <rect x="11" y="9.5" width="1" height="1"/> <rect x="5" y="11.5" width="1" height="1"/> <rect x="7" y="11.5" width="1" height="1"/> <rect x="9" y="11.5" width="1" height="1"/> <rect x="11" y="11.5" width="1" height="1"/> <path d="M13,3.5h-1c0-0.6-0.4-1-1-1s-1,0.4-1,1H7c0-0.6-0.4-1-1-1S5,3,5,3.5H4c-0.6,0-1,0.4-1,1v9c0,0.6,0.4,1,1,1h9
			c0.6,0,1-0.4,1-1v-9C14,4,13.6,3.5,13,3.5z M13,13.5H4v-7h9V13.5z"/> </g> </g> <g id="svgstore64eb2b7c30f1bbb9a8701cec22d9a18cCategory" display="none"> <g display="inline"> <rect x="4.5" y="4.5" width="11" height="2"/> <rect x="4.5" y="7.5" width="11" height="2"/> <rect x="4.5" y="10.5" width="11" height="2"/> <circle cx="2.5" cy="5.5" r="1"/> </g> </g> <g id="svgstore64eb2b7c30f1bbb9a8701cec22d9a18cLove" display="none"> <path display="inline" d="M8.8,13.9C8.7,14,8.6,14,8.5,14s-0.2,0-0.3-0.1C8,13.7,2.5,9.7,2.5,6.5C2.5,4.3,4.1,3,5.7,3
		c1,0,2.1,0.5,2.8,1.8C9.2,3.5,10.3,3,11.3,3c1.601,0,3.2,1.3,3.2,3.5C14.5,9.7,9,13.7,8.8,13.9z"/> </g> <g id="svgstore64eb2b7c30f1bbb9a8701cec22d9a18cTwitter" display="none"> <path display="inline" d="M16.5,3.5c-0.6,0.3-1.2,0.4-1.9,0.5c0.7-0.4,1.2-1,1.4-1.8c-0.6,0.4-1.3,0.7-2,0.8c-0.6-0.6-1.5-1-2.4-1
		C9.8,2,8.3,3.5,8.3,5.3c0,0.3,0,0.5,0.1,0.7C5.7,5.9,3.2,4.6,1.6,2.6c-0.3,0.5-0.4,1-0.4,1.6c0,1.1,0.6,2.1,1.5,2.7
		c-0.5,0-1-0.2-1.5-0.4l0,0c0,1.6,1.1,2.9,2.6,3.2C3.5,9.9,3.2,10,2.9,10c-0.2,0-0.4,0-0.6-0.1c0.4,1.3,1.6,2.3,3.1,2.3
		C4.3,13.1,2.9,13.6,1.3,13.6c-0.3,0-0.5,0-0.8,0C2,14.5,3.7,15,5.5,15c6,0,9.3-5,9.3-9.3c0-0.1,0-0.3,0-0.4
		C15.5,4.8,16.1,4.2,16.5,3.5z"/> </g> <g id="svgstore64eb2b7c30f1bbb9a8701cec22d9a18cArrow" display="none"> <path display="inline" d="M15.5,22.5c-0.1,0-0.2,0-0.3-0.1L1.2,8.9C1.1,8.8,1,8.6,1,8.5s0.1-0.3,0.2-0.4l14-13.5
		c0.2-0.2,0.5-0.2,0.7,0c0.199,0.2,0.199,0.5,0,0.7L2.2,8.5l13.6,13.1c0.2,0.2,0.2,0.5,0,0.7C15.8,22.5,15.6,22.5,15.5,22.5z"/> </g> <g id="svgstore64eb2b7c30f1bbb9a8701cec22d9a18cSearch"> <path d="M16.3,14.1l-2.8-2.8c0.7-1.1,1.1-2.4,1.1-3.8c0-3.9-3.1-7-7-7s-7,3.1-7,7c0,3.9,3.1,7,7,7c1.4,0,2.7-0.4,3.8-1.1l2.8,2.8
		c0.2,0.2,0.5,0.2,0.7,0l1.399-1.4C16.4,14.6,16.4,14.3,16.3,14.1z M7.6,12.6c-2.8,0-5-2.199-5-5s2.2-5,5-5s5,2.2,5,5
		S10.4,12.6,7.6,12.6z"/> </g> <g id="svgstore64eb2b7c30f1bbb9a8701cec22d9a18cPinterest" display="none"> <path display="inline" d="M7.5,10.9C7.1,13,6.6,15,5.1,16.1c-0.4-3.199,0.7-5.5,1.2-8C5.4,6.6,6.4,3.6,8.2,4.4
		c2.3,0.9-2,5.4,0.899,6C12,11,13.3,5.3,11.4,3.4C8.8,0.7,3.7,3.3,4.4,7.2c0.2,0.9,1.1,1.2,0.4,2.5C3.1,9.3,2.6,8,2.6,6.2
		C2.7,3.3,5.2,1.3,7.7,1c3.2-0.4,6.2,1.2,6.6,4.2c0.5,3.4-1.399,7-4.8,6.8C8.6,11.8,8.2,11.4,7.5,10.9"/> </g> <g id="svgstore64eb2b7c30f1bbb9a8701cec22d9a18cInstagram" display="none"> <g display="inline"> <path d="M14.5,0.5H2.6c-1.1,0-2.1,0.9-2.1,2.1v3.9h2h1.4c0.8-1.8,2.5-3,4.6-3c2.1,0,3.8,1.2,4.6,3h1.4h2V2.6
			C16.5,1.4,15.6,0.5,14.5,0.5z M14.5,4.5h-2v-2h2V4.5z"/> <path d="M13.5,8.5c0,2.8-2.2,5-5,5s-5-2.2-5-5h-1h-2v5.9c0,1.1,0.9,2.1,2.1,2.1h11.9c1.1,0,2.1-0.9,2.1-2.1V8.5h-2H13.5z"/> <circle cx="8.5" cy="8.5" r="3"/> </g> </g> <g id="svgstore64eb2b7c30f1bbb9a8701cec22d9a18cPlus" display="none"> <path display="inline" d="M22.5,8H9V-5.5C9-5.8,8.8-6,8.5-6S8-5.8,8-5.5V8H-5.5C-5.8,8-6,8.2-6,8.5S-5.8,9-5.5,9H8v13.5
		C8,22.8,8.2,23,8.5,23S9,22.8,9,22.5V9h13.5C22.8,9,23,8.8,23,8.5S22.8,8,22.5,8z"/> </g> <g id="svgstore64eb2b7c30f1bbb9a8701cec22d9a18cLogo" display="none"> <g display="inline"> <polygon points="249.8,-4.7 249.8,-3.9 253.1,-3.9 253.1,8.5 243.9,8.5 243.9,-3.9 247.2,-3.9 247.2,-4.7 232,-4.7 232,-3.9 
			235.9,-3.9 235.9,22 232,22 232,22.8 247.2,22.8 247.2,22 243.9,22 243.9,9.2 253.1,9.2 253.1,22 249.8,22 249.8,22.8 265,22.8 
			265,22 261.1,22 261.1,-3.9 265,-3.9 265,-4.7 		"/> <path d="M196.3,9.6v0.7h4v11.8C199,22.3,190.4,23.2,190.4,9c0-3.8,0.399-13.3,7.3-13.3c8.399,0,9.8,9.6,9.8,10.3h0.7V-4.7h-0.7
			v0.4c0,0.4-0.1,1-0.6,1.3c-0.5,0.4-1.4,0.3-2.601-0.2c-2.2-0.9-4.8-1.7-6.7-1.7c-11.5,0-15.899,8.4-15.899,14
			c0,9.9,9.6,14,15.7,14c3.699,0,5-0.6,7.1-0.899c2-0.3,2.3,0.5,2.3,0.6h0.7V10.3h3.2V9.6H196.3z"/> <polygon points="143.4,-4.7 143.4,-3.9 147.4,-3.9 147.4,22 143.4,22 143.4,22.8 159.2,22.8 159.2,22 155.3,22 155.3,-3.9 
			159.2,-3.9 159.2,-4.7 		"/> <path d="M121.7,14c-0.3,5.4-3.9,7.9-8.4,8.1H105v-13c4.3,0,7.7,1.7,7.9,5.801h0.399V2.6H113c-0.2,4.1-3.7,5.8-7.9,5.8V-3.9h7.5
			c4.5,0.2,8,2.7,8.4,8.1h0.6v-8.8H93.1v0.7h4v26h-4v0.7H122.2V14H121.7z"/> <path d="M-64.6,15.9c-2.3-4.7-4.4-7-12.3-7l0,0c4.6-0.2,11.6-1.4,11.6-6.9c0-6-7.8-6.6-14.2-6.7l0,0H-92V-4h4v26h-4v0.7h15.7V22
			h-3.8V-4h1.3c4.2,0,6.4,1.9,6.4,6.3c0,5.6-5.1,6.5-5.1,6.5c1.9,0.3,3.4,2.2,5.1,7.9c2.1,7.3,9.2,6,12.8,6V22.1
			C-62.3,22.3-61.8,21.8-64.6,15.9z"/> <path d="M-113.2-4.7h-12.6V-4h6.6v17.5c0,7.6-7.9,9.5-11.6,8c-3.1-1.2-2.9-7.3-2.9-9.2V-3.9h3.3v-0.7h-15.9v0.7h4V13
			c0,8.1,4.8,9.9,12.5,9.9c7.7,0,11.3-3.7,11.3-9.7v-17h5.3V-4.7L-113.2-4.7z"/> <path d="M-167.9,22l-13.5-28l-12.5,28h-3.9v0.7h9.3V22h-4.6l3.3-7.4h10l3.3,7.4h-4.1v0.7h15.9V22H-167.9z M-189.5,13.9l4.6-10.4
			l4.7,10.4H-189.5z"/> <path d="M-7.9,22L-21.4-6l-12.5,28h-3.9v0.7h9.3V22h-4.6l3.3-7.4h10l3.3,7.4h-4.1v0.7h15.9V22H-7.9z M-29.5,13.9l4.6-10.4
			l4.7,10.4H-29.5z"/> <path d="M-219.5,14c-0.3,5.4-3.9,7.9-8.4,8.1h-8.3v-26h4.6v-0.7H-248v0.7h4v26h-4v0.7h29.1V14H-219.5z"/> <path d="M71.4,14c-0.301,5.4-3.9,7.9-8.4,8.1h-8.3v-26h4.6v-0.7H42.9v0.7h4v26h-4v0.7H72V14H71.4z"/> </g> </g> </symbol><symbol viewBox="0 0 17 17" id="shape-smallarrow"><title>smallarrow</title> <g id="svgstorebe176bf170fc437fa0f0e76e3b5c41d4Small_Arrow"> <path d="M6.2,3.8l4.7,4.7l-4.7,4.7V3.8z"/> </g> <g id="svgstorebe176bf170fc437fa0f0e76e3b5c41d4Facebook" display="none"> <path id="svgstorebe176bf170fc437fa0f0e76e3b5c41d4Facebook_3_" display="inline" d="M6.4,3.6c0,0.4,0,2.2,0,2.2H4.8v2.7h1.6v8h3.3v-8h2.2c0,0,0.199-1.3,0.3-2.7
		c-0.3,0-2.5,0-2.5,0s0-1.6,0-1.8c0-0.3,0.399-0.6,0.7-0.6c0.399,0,1.1,0,1.8,0c0-0.4,0-1.6,0-2.8c-0.9,0-2,0-2.5,0
		C6.3,0.5,6.4,3.2,6.4,3.6z"/> </g> <g id="svgstorebe176bf170fc437fa0f0e76e3b5c41d4Calendar" display="none"> <g display="inline"> <rect x="5" y="7.5" width="1" height="1"/> <rect x="7" y="7.5" width="1" height="1"/> <rect x="9" y="7.5" width="1" height="1"/> <rect x="11" y="7.5" width="1" height="1"/> <rect x="5" y="9.5" width="1" height="1"/> <rect x="7" y="9.5" width="1" height="1"/> <rect x="9" y="9.5" width="1" height="1"/> <rect x="11" y="9.5" width="1" height="1"/> <rect x="5" y="11.5" width="1" height="1"/> <rect x="7" y="11.5" width="1" height="1"/> <rect x="9" y="11.5" width="1" height="1"/> <rect x="11" y="11.5" width="1" height="1"/> <path d="M13,3.5h-1c0-0.6-0.4-1-1-1s-1,0.4-1,1H7c0-0.6-0.4-1-1-1S5,3,5,3.5H4c-0.6,0-1,0.4-1,1v9c0,0.6,0.4,1,1,1h9
			c0.6,0,1-0.4,1-1v-9C14,4,13.6,3.5,13,3.5z M13,13.5H4v-7h9V13.5z"/> </g> </g> <g id="svgstorebe176bf170fc437fa0f0e76e3b5c41d4Category" display="none"> <g display="inline"> <rect x="4.5" y="4.5" width="11" height="2"/> <rect x="4.5" y="7.5" width="11" height="2"/> <rect x="4.5" y="10.5" width="11" height="2"/> <circle cx="2.5" cy="5.5" r="1"/> </g> </g> <g id="svgstorebe176bf170fc437fa0f0e76e3b5c41d4Love" display="none"> <path display="inline" d="M8.8,13.9C8.7,14,8.6,14,8.5,14s-0.2,0-0.3-0.1C8,13.7,2.5,9.7,2.5,6.5C2.5,4.3,4.1,3,5.7,3
		c1,0,2.1,0.5,2.8,1.8C9.2,3.5,10.3,3,11.3,3c1.601,0,3.2,1.3,3.2,3.5C14.5,9.7,9,13.7,8.8,13.9z"/> </g> <g id="svgstorebe176bf170fc437fa0f0e76e3b5c41d4Twitter" display="none"> <path display="inline" d="M16.5,3.5c-0.6,0.3-1.2,0.4-1.9,0.5c0.7-0.4,1.2-1,1.4-1.8c-0.6,0.4-1.3,0.7-2,0.8c-0.6-0.6-1.5-1-2.4-1
		C9.8,2,8.3,3.5,8.3,5.3c0,0.3,0,0.5,0.1,0.7C5.7,5.9,3.2,4.6,1.6,2.6c-0.3,0.5-0.4,1-0.4,1.6c0,1.1,0.6,2.1,1.5,2.7
		c-0.5,0-1-0.2-1.5-0.4l0,0c0,1.6,1.1,2.9,2.6,3.2C3.5,9.9,3.2,10,2.9,10c-0.2,0-0.4,0-0.6-0.1c0.4,1.3,1.6,2.3,3.1,2.3
		C4.3,13.1,2.9,13.6,1.3,13.6c-0.3,0-0.5,0-0.8,0C2,14.5,3.7,15,5.5,15c6,0,9.3-5,9.3-9.3c0-0.1,0-0.3,0-0.4
		C15.5,4.8,16.1,4.2,16.5,3.5z"/> </g> <g id="svgstorebe176bf170fc437fa0f0e76e3b5c41d4Arrow" display="none"> <path display="inline" d="M15.5,22.5c-0.1,0-0.2,0-0.3-0.1L1.2,8.9C1.1,8.8,1,8.6,1,8.5s0.1-0.3,0.2-0.4l14-13.5
		c0.2-0.2,0.5-0.2,0.7,0c0.199,0.2,0.199,0.5,0,0.7L2.2,8.5l13.6,13.1c0.2,0.2,0.2,0.5,0,0.7C15.8,22.5,15.6,22.5,15.5,22.5z"/> </g> <g id="svgstorebe176bf170fc437fa0f0e76e3b5c41d4Search" display="none"> <path display="inline" d="M16.3,14.1l-2.8-2.8c0.7-1.1,1.1-2.4,1.1-3.8c0-3.9-3.1-7-7-7s-7,3.1-7,7c0,3.9,3.1,7,7,7
		c1.4,0,2.7-0.4,3.8-1.1l2.8,2.8c0.2,0.2,0.5,0.2,0.7,0l1.399-1.4C16.4,14.6,16.4,14.3,16.3,14.1z M7.6,12.6c-2.8,0-5-2.199-5-5
		s2.2-5,5-5s5,2.2,5,5S10.4,12.6,7.6,12.6z"/> </g> <g id="svgstorebe176bf170fc437fa0f0e76e3b5c41d4Pinterest" display="none"> <path display="inline" d="M7.5,10.9C7.1,13,6.6,15,5.1,16.1c-0.4-3.199,0.7-5.5,1.2-8C5.4,6.6,6.4,3.6,8.2,4.4
		c2.3,0.9-2,5.4,0.899,6C12,11,13.3,5.3,11.4,3.4C8.8,0.7,3.7,3.3,4.4,7.2c0.2,0.9,1.1,1.2,0.4,2.5C3.1,9.3,2.6,8,2.6,6.2
		C2.7,3.3,5.2,1.3,7.7,1c3.2-0.4,6.2,1.2,6.6,4.2c0.5,3.4-1.399,7-4.8,6.8C8.6,11.8,8.2,11.4,7.5,10.9"/> </g> <g id="svgstorebe176bf170fc437fa0f0e76e3b5c41d4Instagram" display="none"> <g display="inline"> <path d="M14.5,0.5H2.6c-1.1,0-2.1,0.9-2.1,2.1v3.9h2h1.4c0.8-1.8,2.5-3,4.6-3c2.1,0,3.8,1.2,4.6,3h1.4h2V2.6
			C16.5,1.4,15.6,0.5,14.5,0.5z M14.5,4.5h-2v-2h2V4.5z"/> <path d="M13.5,8.5c0,2.8-2.2,5-5,5s-5-2.2-5-5h-1h-2v5.9c0,1.1,0.9,2.1,2.1,2.1h11.9c1.1,0,2.1-0.9,2.1-2.1V8.5h-2H13.5z"/> <circle cx="8.5" cy="8.5" r="3"/> </g> </g> <g id="svgstorebe176bf170fc437fa0f0e76e3b5c41d4Plus" display="none"> <path display="inline" d="M22.5,8H9V-5.5C9-5.8,8.8-6,8.5-6S8-5.8,8-5.5V8H-5.5C-5.8,8-6,8.2-6,8.5S-5.8,9-5.5,9H8v13.5
		C8,22.8,8.2,23,8.5,23S9,22.8,9,22.5V9h13.5C22.8,9,23,8.8,23,8.5S22.8,8,22.5,8z"/> </g> <g id="svgstorebe176bf170fc437fa0f0e76e3b5c41d4Logo" display="none"> <g display="inline"> <polygon points="249.8,-4.7 249.8,-3.9 253.1,-3.9 253.1,8.5 243.9,8.5 243.9,-3.9 247.2,-3.9 247.2,-4.7 232,-4.7 232,-3.9 
			235.9,-3.9 235.9,22 232,22 232,22.8 247.2,22.8 247.2,22 243.9,22 243.9,9.2 253.1,9.2 253.1,22 249.8,22 249.8,22.8 265,22.8 
			265,22 261.1,22 261.1,-3.9 265,-3.9 265,-4.7 		"/> <path d="M196.3,9.6v0.7h4v11.8C199,22.3,190.4,23.2,190.4,9c0-3.8,0.399-13.3,7.3-13.3c8.399,0,9.8,9.6,9.8,10.3h0.7V-4.7h-0.7
			v0.4c0,0.4-0.1,1-0.6,1.3c-0.5,0.4-1.4,0.3-2.601-0.2c-2.2-0.9-4.8-1.7-6.7-1.7c-11.5,0-15.899,8.4-15.899,14
			c0,9.9,9.6,14,15.7,14c3.699,0,5-0.6,7.1-0.899c2-0.3,2.3,0.5,2.3,0.6h0.7V10.3h3.2V9.6H196.3z"/> <polygon points="143.4,-4.7 143.4,-3.9 147.4,-3.9 147.4,22 143.4,22 143.4,22.8 159.2,22.8 159.2,22 155.3,22 155.3,-3.9 
			159.2,-3.9 159.2,-4.7 		"/> <path d="M121.7,14c-0.3,5.4-3.9,7.9-8.4,8.1H105v-13c4.3,0,7.7,1.7,7.9,5.801h0.399V2.6H113c-0.2,4.1-3.7,5.8-7.9,5.8V-3.9h7.5
			c4.5,0.2,8,2.7,8.4,8.1h0.6v-8.8H93.1v0.7h4v26h-4v0.7H122.2V14H121.7z"/> <path d="M-64.6,15.9c-2.3-4.7-4.4-7-12.3-7l0,0c4.6-0.2,11.6-1.4,11.6-6.9c0-6-7.8-6.6-14.2-6.7l0,0H-92V-4h4v26h-4v0.7h15.7V22
			h-3.8V-4h1.3c4.2,0,6.4,1.9,6.4,6.3c0,5.6-5.1,6.5-5.1,6.5c1.9,0.3,3.4,2.2,5.1,7.9c2.1,7.3,9.2,6,12.8,6V22.1
			C-62.3,22.3-61.8,21.8-64.6,15.9z"/> <path d="M-113.2-4.7h-12.6V-4h6.6v17.5c0,7.6-7.9,9.5-11.6,8c-3.1-1.2-2.9-7.3-2.9-9.2V-3.9h3.3v-0.7h-15.9v0.7h4V13
			c0,8.1,4.8,9.9,12.5,9.9c7.7,0,11.3-3.7,11.3-9.7v-17h5.3V-4.7L-113.2-4.7z"/> <path d="M-167.9,22l-13.5-28l-12.5,28h-3.9v0.7h9.3V22h-4.6l3.3-7.4h10l3.3,7.4h-4.1v0.7h15.9V22H-167.9z M-189.5,13.9l4.6-10.4
			l4.7,10.4H-189.5z"/> <path d="M-7.9,22L-21.4-6l-12.5,28h-3.9v0.7h9.3V22h-4.6l3.3-7.4h10l3.3,7.4h-4.1v0.7h15.9V22H-7.9z M-29.5,13.9l4.6-10.4
			l4.7,10.4H-29.5z"/> <path d="M-219.5,14c-0.3,5.4-3.9,7.9-8.4,8.1h-8.3v-26h4.6v-0.7H-248v0.7h4v26h-4v0.7h29.1V14H-219.5z"/> <path d="M71.4,14c-0.301,5.4-3.9,7.9-8.4,8.1h-8.3v-26h4.6v-0.7H42.9v0.7h4v26h-4v0.7H72V14H71.4z"/> </g> </g> </symbol><symbol viewBox="0 0 17 17" id="shape-twitter"><title>twitter</title> <g id="svgstore8a69104eb829131a83c1ae1a56436022Small_Arrow" display="none"> <path display="inline" d="M6.2,3.8l4.7,4.7l-4.7,4.7V3.8z"/> </g> <g id="svgstore8a69104eb829131a83c1ae1a56436022Facebook" display="none"> <path id="svgstore8a69104eb829131a83c1ae1a56436022Facebook_3_" display="inline" d="M6.4,3.6c0,0.4,0,2.2,0,2.2H4.8v2.7h1.6v8h3.3v-8h2.2c0,0,0.199-1.3,0.3-2.7
		c-0.3,0-2.5,0-2.5,0s0-1.6,0-1.8c0-0.3,0.399-0.6,0.7-0.6c0.399,0,1.1,0,1.8,0c0-0.4,0-1.6,0-2.8c-0.9,0-2,0-2.5,0
		C6.3,0.5,6.4,3.2,6.4,3.6z"/> </g> <g id="svgstore8a69104eb829131a83c1ae1a56436022Calendar" display="none"> <g display="inline"> <rect x="5" y="7.5" width="1" height="1"/> <rect x="7" y="7.5" width="1" height="1"/> <rect x="9" y="7.5" width="1" height="1"/> <rect x="11" y="7.5" width="1" height="1"/> <rect x="5" y="9.5" width="1" height="1"/> <rect x="7" y="9.5" width="1" height="1"/> <rect x="9" y="9.5" width="1" height="1"/> <rect x="11" y="9.5" width="1" height="1"/> <rect x="5" y="11.5" width="1" height="1"/> <rect x="7" y="11.5" width="1" height="1"/> <rect x="9" y="11.5" width="1" height="1"/> <rect x="11" y="11.5" width="1" height="1"/> <path d="M13,3.5h-1c0-0.6-0.4-1-1-1s-1,0.4-1,1H7c0-0.6-0.4-1-1-1S5,3,5,3.5H4c-0.6,0-1,0.4-1,1v9c0,0.6,0.4,1,1,1h9
			c0.6,0,1-0.4,1-1v-9C14,4,13.6,3.5,13,3.5z M13,13.5H4v-7h9V13.5z"/> </g> </g> <g id="svgstore8a69104eb829131a83c1ae1a56436022Category" display="none"> <g display="inline"> <rect x="4.5" y="4.5" width="11" height="2"/> <rect x="4.5" y="7.5" width="11" height="2"/> <rect x="4.5" y="10.5" width="11" height="2"/> <circle cx="2.5" cy="5.5" r="1"/> </g> </g> <g id="svgstore8a69104eb829131a83c1ae1a56436022Love" display="none"> <path display="inline" d="M8.8,13.9C8.7,14,8.6,14,8.5,14s-0.2,0-0.3-0.1C8,13.7,2.5,9.7,2.5,6.5C2.5,4.3,4.1,3,5.7,3
		c1,0,2.1,0.5,2.8,1.8C9.2,3.5,10.3,3,11.3,3c1.601,0,3.2,1.3,3.2,3.5C14.5,9.7,9,13.7,8.8,13.9z"/> </g> <g id="svgstore8a69104eb829131a83c1ae1a56436022Twitter"> <path d="M16.5,3.5c-0.6,0.3-1.2,0.4-1.9,0.5c0.7-0.4,1.2-1,1.4-1.8c-0.6,0.4-1.3,0.7-2,0.8c-0.6-0.6-1.5-1-2.4-1
		C9.8,2,8.3,3.5,8.3,5.3c0,0.3,0,0.5,0.1,0.7C5.7,5.9,3.2,4.6,1.6,2.6c-0.3,0.5-0.4,1-0.4,1.6c0,1.1,0.6,2.1,1.5,2.7
		c-0.5,0-1-0.2-1.5-0.4l0,0c0,1.6,1.1,2.9,2.6,3.2C3.5,9.9,3.2,10,2.9,10c-0.2,0-0.4,0-0.6-0.1c0.4,1.3,1.6,2.3,3.1,2.3
		C4.3,13.1,2.9,13.6,1.3,13.6c-0.3,0-0.5,0-0.8,0C2,14.5,3.7,15,5.5,15c6,0,9.3-5,9.3-9.3c0-0.1,0-0.3,0-0.4
		C15.5,4.8,16.1,4.2,16.5,3.5z"/> </g> <g id="svgstore8a69104eb829131a83c1ae1a56436022Arrow" display="none"> <path display="inline" d="M15.5,22.5c-0.1,0-0.2,0-0.3-0.1L1.2,8.9C1.1,8.8,1,8.6,1,8.5s0.1-0.3,0.2-0.4l14-13.5
		c0.2-0.2,0.5-0.2,0.7,0c0.199,0.2,0.199,0.5,0,0.7L2.2,8.5l13.6,13.1c0.2,0.2,0.2,0.5,0,0.7C15.8,22.5,15.6,22.5,15.5,22.5z"/> </g> <g id="svgstore8a69104eb829131a83c1ae1a56436022Search" display="none"> <path display="inline" d="M16.3,14.1l-2.8-2.8c0.7-1.1,1.1-2.4,1.1-3.8c0-3.9-3.1-7-7-7s-7,3.1-7,7c0,3.9,3.1,7,7,7
		c1.4,0,2.7-0.4,3.8-1.1l2.8,2.8c0.2,0.2,0.5,0.2,0.7,0l1.399-1.4C16.4,14.6,16.4,14.3,16.3,14.1z M7.6,12.6c-2.8,0-5-2.199-5-5
		s2.2-5,5-5s5,2.2,5,5S10.4,12.6,7.6,12.6z"/> </g> <g id="svgstore8a69104eb829131a83c1ae1a56436022Pinterest" display="none"> <path display="inline" d="M7.5,10.9C7.1,13,6.6,15,5.1,16.1c-0.4-3.199,0.7-5.5,1.2-8C5.4,6.6,6.4,3.6,8.2,4.4
		c2.3,0.9-2,5.4,0.899,6C12,11,13.3,5.3,11.4,3.4C8.8,0.7,3.7,3.3,4.4,7.2c0.2,0.9,1.1,1.2,0.4,2.5C3.1,9.3,2.6,8,2.6,6.2
		C2.7,3.3,5.2,1.3,7.7,1c3.2-0.4,6.2,1.2,6.6,4.2c0.5,3.4-1.399,7-4.8,6.8C8.6,11.8,8.2,11.4,7.5,10.9"/> </g> <g id="svgstore8a69104eb829131a83c1ae1a56436022Instagram" display="none"> <g display="inline"> <path d="M14.5,0.5H2.6c-1.1,0-2.1,0.9-2.1,2.1v3.9h2h1.4c0.8-1.8,2.5-3,4.6-3c2.1,0,3.8,1.2,4.6,3h1.4h2V2.6
			C16.5,1.4,15.6,0.5,14.5,0.5z M14.5,4.5h-2v-2h2V4.5z"/> <path d="M13.5,8.5c0,2.8-2.2,5-5,5s-5-2.2-5-5h-1h-2v5.9c0,1.1,0.9,2.1,2.1,2.1h11.9c1.1,0,2.1-0.9,2.1-2.1V8.5h-2H13.5z"/> <circle cx="8.5" cy="8.5" r="3"/> </g> </g> <g id="svgstore8a69104eb829131a83c1ae1a56436022Plus" display="none"> <path display="inline" d="M22.5,8H9V-5.5C9-5.8,8.8-6,8.5-6S8-5.8,8-5.5V8H-5.5C-5.8,8-6,8.2-6,8.5S-5.8,9-5.5,9H8v13.5
		C8,22.8,8.2,23,8.5,23S9,22.8,9,22.5V9h13.5C22.8,9,23,8.8,23,8.5S22.8,8,22.5,8z"/> </g> <g id="svgstore8a69104eb829131a83c1ae1a56436022Logo" display="none"> <g display="inline"> <polygon points="249.8,-4.7 249.8,-3.9 253.1,-3.9 253.1,8.5 243.9,8.5 243.9,-3.9 247.2,-3.9 247.2,-4.7 232,-4.7 232,-3.9 
			235.9,-3.9 235.9,22 232,22 232,22.8 247.2,22.8 247.2,22 243.9,22 243.9,9.2 253.1,9.2 253.1,22 249.8,22 249.8,22.8 265,22.8 
			265,22 261.1,22 261.1,-3.9 265,-3.9 265,-4.7 		"/> <path d="M196.3,9.6v0.7h4v11.8C199,22.3,190.4,23.2,190.4,9c0-3.8,0.399-13.3,7.3-13.3c8.399,0,9.8,9.6,9.8,10.3h0.7V-4.7h-0.7
			v0.4c0,0.4-0.1,1-0.6,1.3c-0.5,0.4-1.4,0.3-2.601-0.2c-2.2-0.9-4.8-1.7-6.7-1.7c-11.5,0-15.899,8.4-15.899,14
			c0,9.9,9.6,14,15.7,14c3.699,0,5-0.6,7.1-0.899c2-0.3,2.3,0.5,2.3,0.6h0.7V10.3h3.2V9.6H196.3z"/> <polygon points="143.4,-4.7 143.4,-3.9 147.4,-3.9 147.4,22 143.4,22 143.4,22.8 159.2,22.8 159.2,22 155.3,22 155.3,-3.9 
			159.2,-3.9 159.2,-4.7 		"/> <path d="M121.7,14c-0.3,5.4-3.9,7.9-8.4,8.1H105v-13c4.3,0,7.7,1.7,7.9,5.801h0.399V2.6H113c-0.2,4.1-3.7,5.8-7.9,5.8V-3.9h7.5
			c4.5,0.2,8,2.7,8.4,8.1h0.6v-8.8H93.1v0.7h4v26h-4v0.7H122.2V14H121.7z"/> <path d="M-64.6,15.9c-2.3-4.7-4.4-7-12.3-7l0,0c4.6-0.2,11.6-1.4,11.6-6.9c0-6-7.8-6.6-14.2-6.7l0,0H-92V-4h4v26h-4v0.7h15.7V22
			h-3.8V-4h1.3c4.2,0,6.4,1.9,6.4,6.3c0,5.6-5.1,6.5-5.1,6.5c1.9,0.3,3.4,2.2,5.1,7.9c2.1,7.3,9.2,6,12.8,6V22.1
			C-62.3,22.3-61.8,21.8-64.6,15.9z"/> <path d="M-113.2-4.7h-12.6V-4h6.6v17.5c0,7.6-7.9,9.5-11.6,8c-3.1-1.2-2.9-7.3-2.9-9.2V-3.9h3.3v-0.7h-15.9v0.7h4V13
			c0,8.1,4.8,9.9,12.5,9.9c7.7,0,11.3-3.7,11.3-9.7v-17h5.3V-4.7L-113.2-4.7z"/> <path d="M-167.9,22l-13.5-28l-12.5,28h-3.9v0.7h9.3V22h-4.6l3.3-7.4h10l3.3,7.4h-4.1v0.7h15.9V22H-167.9z M-189.5,13.9l4.6-10.4
			l4.7,10.4H-189.5z"/> <path d="M-7.9,22L-21.4-6l-12.5,28h-3.9v0.7h9.3V22h-4.6l3.3-7.4h10l3.3,7.4h-4.1v0.7h15.9V22H-7.9z M-29.5,13.9l4.6-10.4
			l4.7,10.4H-29.5z"/> <path d="M-219.5,14c-0.3,5.4-3.9,7.9-8.4,8.1h-8.3v-26h4.6v-0.7H-248v0.7h4v26h-4v0.7h29.1V14H-219.5z"/> <path d="M71.4,14c-0.301,5.4-3.9,7.9-8.4,8.1h-8.3v-26h4.6v-0.7H42.9v0.7h4v26h-4v0.7H72V14H71.4z"/> </g> </g> </symbol></svg>